<svg width="50px" height="50px" viewBox="0 0 50 50" version="1.1" xmlns="http://www.w3.org/2000/svg" xmlns:xlink="http://www.w3.org/1999/xlink">
    <title>Group 47</title>
    <g id="main" stroke="none" stroke-width="1" fill="none" fill-rule="evenodd">
        <g id="Group-47" transform="translate(0.932000, 0.688000)" fill="#000000" fill-rule="nonzero">
            <path d="M15.488,1.8 L15.272,1.656 L15.704,1.224 L15.92,1.368 L15.488,1.8 Z M17.792,1.8 L17.648,1.656 L18.08,1.224 L18.296,1.368 L17.792,1.8 Z M15.92,3.024 C15.92,2.664 16.496,1.944 17.072,1.44 C17.072,1.44 17.288,1.656 17.504,1.656 L15.92,3.024 Z M17.792,2.376 L17.648,2.16 L18.224,1.584 L18.44,1.728 L17.792,2.376 Z M17.504,4.464 L17.936,3.96 C17.936,3.96 18.224,4.176 18.368,4.176 C18.224,4.392 17.72,4.464 17.504,4.464 Z M9.8,6.12 C9.8,5.904 9.728,5.616 9.584,5.472 C9.944,5.112 10.304,4.536 10.808,4.32 C10.664,4.68 10.304,5.112 9.944,5.472 C10.088,5.616 10.448,5.256 10.664,5.256 L9.8,6.12 Z M16.28,5.4 L17.072,4.464 C17,4.752 16.928,5.544 16.28,5.4 Z M16.28,7.488 L17.864,5.328 C17.648,5.112 17.648,5.184 17.36,5.4 C17.36,5.184 17.648,4.824 17.792,4.68 C17.792,4.824 17.936,5.04 18.008,5.04 L18.512,4.68 C18.728,5.544 17.792,6.12 17.432,6.624 L17.288,6.624 L16.28,7.488 Z M11.024,6.048 C11.24,5.904 11.6,5.544 11.384,5.328 L11.312,5.256 C11.384,5.112 11.888,4.68 12.248,4.896 C12.248,5.256 11.6,5.904 11.024,6.048 Z M9.944,9.864 C9.944,9.864 9.778625,9.698625 9.6408125,9.51257812 L9.594,9.447 L9.608,9.405 L10.808,7.992 L10.736,7.92 L9.8,8.784 C10.16,7.992 9.944,8.28 9.584,7.848 C9.944,7.272 10.448,6.696 11.168,6.336 L10.304,7.272 L10.376,7.344 L12.248,5.544 C12.248,6.12 12.032,6.624 11.888,7.128 L11.672,7.128 C11.24,7.56 10.952,7.704 11.096,8.208 C10.664,8.856 10.088,9.36 9.944,9.864 Z M16.496,6.264 L16.208,6.264 L16.208,5.76 L16.496,5.76 L16.496,6.264 Z M9.8,6.84 C9.8,6.48 10.376,6.12 10.376,5.76 C10.376,5.76 10.664,5.976 10.808,5.976 C10.664,6.192 10.16,6.624 9.8,6.84 Z M9.872,10.8 C9.872,10.8 9.728,10.512 9.584,10.296 L12.248,8.28 L9.872,10.8 Z M18.872,10.08 C18.872,9.72 19.016,9.144 18.8,9 C18.8,9.144 18.584,9.36 18.44,9.36 L18.872,10.08 Z M11.888,10.44 L11.672,10.296 L12.104,9.648 L12.32,9.792 L11.888,10.44 Z M18.584,11.52 L19.016,10.656 L18.728,10.584 L18.368,11.376 L18.584,11.52 Z M10.88,14.544 L12.392,13.104 C12.392,13.32 12.248,13.464 12.392,13.68 C12.608,13.68 12.248,14.184 12.032,14.4 C11.888,14.4 11.96,14.112 12.104,13.968 C11.6,13.968 11.528,14.256 10.88,14.544 Z M17.504,14.04 L17.288,13.896 L17.648,13.248 L17.936,13.392 L17.504,14.04 Z M12.968,14.976 L12.752,14.76 L13.616,14.112 L13.76,14.4 L12.968,14.976 Z M17.504,18.432 C17.72,18.288 18.224,17.856 18.368,18.072 C18.224,18.216 17.72,18.432 17.504,18.432 Z M12.752,19.44 L12.608,19.296 L13.184,18.648 L13.4,18.864 L12.752,19.44 Z M18.944,19.8 L19.16,19.296 L18.944,19.224 L18.728,19.656 L18.944,19.8 Z M15.488,20.88 L15.272,20.736 L15.848,19.944 L16.136,20.088 L15.488,20.88 Z M18.152,23.4 C18.008,23.4 17.648,23.112 17.72,22.968 C17.648,22.752 17.36,22.968 17,22.752 C17.504,22.032 18.296,21.384 18.656,20.664 C18.656,21.24 18.728,22.032 18.728,22.752 L18.152,23.4 Z M9.512,23.256 C9.656,23.112 10.52,22.176 11.384,21.24 L10.304,22.32 C10.304,22.32 9.656,22.536 9.512,22.752 C9.584,22.896 9.656,23.112 9.512,23.256 Z M10.016,24.48 C10.016,24.264 9.944,23.76 9.944,23.616 C10.16,23.616 10.376,23.4 10.592,23.544 C10.952,23.04 11.528,22.68 11.888,22.32 L11.888,22.968 L11.312,23.544 L11.096,23.4 L10.016,24.48 Z M15.488,23.256 L15.272,23.04 L15.92,22.608 L16.136,22.824 L15.488,23.256 Z M18.296,24.48 C18.296,24.264 18.44,23.904 18.44,23.544 L18.08,23.904 C18.08,23.76 18.512,23.184 18.728,23.184 C18.728,23.184 18.728,23.472 18.944,23.616 C18.728,23.832 18.44,24.12 18.296,24.48 Z M11.816,24.264 L11.528,24.264 L11.312,23.616 L11.6,23.544 L11.816,24.264 Z M18.584,24.84 L18.368,24.696 L18.584,24.264 L18.8,24.336 L18.584,24.84 Z M10.664,25.488 L11.888,24.264 C11.888,24.624 11.24,25.344 10.664,25.488 Z M11.528,26.496 L11.312,26.28 L11.744,25.704 L11.96,25.848 L11.528,26.496 Z M10.664,27.648 L11.528,26.784 C11.528,27 11.24,27.504 10.664,27.648 Z M9.872,28.08 L9.728,27.936 L10.16,27.504 L10.376,27.648 L9.872,28.08 Z M11.6,28.224 L11.312,28.152 L11.528,27.72 L11.816,27.792 L11.6,28.224 Z M10.088,28.44 L9.872,28.296 L10.304,27.864 L10.52,28.008 L10.088,28.44 Z M9.8,29.304 L10.376,28.584 C10.736,28.584 10.592,28.44 10.808,28.224 L10.808,28.944 C10.664,28.944 10.16,29.088 9.8,29.304 Z M11.384,28.944 L11.168,28.872 L11.384,28.44 L11.6,28.512 L11.384,28.944 Z M10.592,30.6 L10.448,30.456 L10.88,30.024 L11.096,30.168 L10.592,30.6 Z M9.728,31.536 L9.512,31.32 L10.16,30.744 L10.376,30.888 L9.728,31.536 Z M9.584,32.904 C9.8,32.688 10.16,32.4 10.16,32.04 L9.8,32.4 L9.8,31.68 C9.944,31.68 10.448,31.752 10.664,32.112 C10.448,32.328 9.944,32.688 9.584,32.904 Z M9.872,33.84 L9.728,33.696 L10.304,33.048 L10.52,33.264 L9.872,33.84 Z M10.16,35.064 L9.872,34.992 L10.088,34.56 L10.376,34.632 L10.16,35.064 Z M9.944,44.424 C10.088,44.064 10.808,43.704 11.168,43.344 C10.952,43.704 10.304,44.424 9.944,44.424 Z M11.816,44.568 L11.528,44.568 L11.528,44.136 L11.816,44.136 L11.816,44.568 Z M9.584,46.728 C9.8,46.512 10.304,46.368 10.448,46.512 C10.448,46.512 10.16,46.728 9.584,46.728 Z M10.611,18.909 L10.6975232,18.8479227 C11.0396672,18.6144768 11.37248,18.45792 11.528,18.432 C11.4272,18.3312 11.25584,18.15984 11.211488,17.992008 L11.2,17.922 L11.1614927,18.0371545 C11.0512886,18.3369096 10.8793703,18.6418076 10.6817376,18.8438484 L10.611,18.909 Z M9.754,17.188 L9.8,17.064 C9.584,17.64 9.44,18.072 9.224,18.432 L9.224,22.32 C9.8,21.744 10.808,20.88 11.384,20.16 L9.872,21.6 C9.656,21.384 9.728,21.312 9.728,21.312 C10.304,20.592 10.592,20.16 10.808,19.584 C10.448,19.944 10.088,20.376 9.728,20.52 C9.48608,19.99584 9.9441152,19.4265216 10.469888,19.0143544 L10.492,18.998 L10.4163032,19.0384373 C10.3554286,19.0653061 10.2937143,19.08 10.232,19.08 C9.728,19.08 9.728,18.864 9.584,18.432 C9.944,18.072 9.872,17.784 10.448,17.64 L11.024,17.064 C10.808,17.208 10.592,16.992 10.592,16.776 C10.592,16.992 10.232,17.28 10.016,17.424 C9.92,17.328 9.792,17.296 9.76,17.2213333 L9.754,17.188 Z M9.597,13.481 L9.584,13.536 C9.728,13.032 9.728,12.384 9.656,11.88 C9.576,12.36 9.58488889,12.9066667 9.59624691,13.4212346 L9.597,13.481 Z M17.48,14.774 L17.517248,14.743296 C17.62784,14.67648 17.72,14.8032 17.72,14.976 C17.36,15.192 17.216,15.48 16.856,15.624 L16.568,15.408 L16.928,15.048 C17.288,14.544 17.864,13.752 18.296,13.176 C18.008,13.032 17.864,13.176 17.504,13.032 L18.224,12.312 L17.936,12.024 L17.216,12.744 C17.072,12.6 17.504,12.384 17.072,12.384 C16.568,12.384 16.784,12.816 16.568,12.816 C16.496,11.376 17.36,11.52 17.792,10.656 L16.712,11.664 L16.424,11.376 C17.216,10.296 17,9.216 18.656,7.92 C18.8,8.28 18.656,8.496 18.512,8.712 C18.656,8.496 19.016,8.784 19.016,8.784 L19.016,6.264 C18.728,6.552 18.368,7.2 18.08,7.488 L18.512,7.2 L18.728,7.416 L17.936,8.28 C16.784,8.496 17.216,8.784 16.712,9.144 C16.496,8.784 16.208,8.712 16.064,8.352 C16.424,7.992 17,7.632 17.288,7.704 C16.856,6.912 18.224,6.696 18.872,5.904 C18.944,5.544 19.088,5.328 19.088,4.896 C19.088,4.464 18.872,4.68 18.872,4.68 C18.944,4.176 18.656,3.672 18.656,3.312 C18.656,3.456 18.512,3.744 18.368,3.744 C18.152,3.6 18.368,3.456 18.224,3.312 C18.584,2.952 18.728,2.736 18.944,2.592 C18.728,2.448 18.656,2.16 18.656,2.16 C18.728,2.52 18.44,2.736 18.152,3.024 C17.936,2.88 17.864,2.808 17.864,2.592 C18.224,2.16 18.8,1.872 18.944,1.512 C18.728,1.296 18.296,1.224 18.152,1.08 L17.792,1.44 L17.288,1.152 C17.432,0.72 17.792,0.792 18.224,0.648 C18.224,0.504 17.792,0.144 17.648,0 C17.432,0 17,0.144 16.856,0.36 L13.184,0.216 C13.184,0.576 12.968,0.864 12.536,0.864 L9.44,0.864 L9.44,4.104 C9.584,4.104 9.728,4.248 9.728,4.248 C9.224,4.68 9.368,4.68 9.224,5.184 C9.44,5.184 9.584,5.328 9.584,5.328 C9.44,5.832 9.44,6.408 9.224,6.984 C9.512,6.768 9.584,6.768 9.728,6.912 C9.44,7.416 9.44,8.424 9.44,8.784 C9.584,8.784 9.8,8.928 9.8,8.928 C9.7328,9.072 9.67584,9.2096 9.628608,9.34216533 L9.608,9.405 L9.584,9.432 L9.584,9.432 L9.594,9.447 L9.564992,9.537408 C9.3392,10.30464 9.4544,10.9152 9.8,11.664 L11.456,9.504 C11.456,10.08 11.312,10.296 11.096,10.512 C11.312,10.296 11.528,10.368 11.744,10.512 L10.664,11.808 C11.024,11.448 11.24,11.088 11.6,10.944 C11.816,11.16 11.528,11.232 11.744,11.376 C11.024,11.736 10.664,12.528 10.304,12.888 L11.096,12.24 C11.312,12.384 11.168,12.456 11.168,12.456 L9.872,13.824 L9.599,13.552 L9.60266667,13.7253333 C9.608,14.024 9.608,14.304 9.584,14.544 L12.32,11.664 L12.464,12.456 L12.032,12.96 L11.816,12.384 L9.872,15.12 C9.656,14.904 9.656,14.76 9.656,14.76 C9.566,15.21 9.5885,15.66 9.582875,16.0572656 L9.579,16.164 L9.588608,16.135488 C9.83744,15.52032 10.6208,15.3936 11.312,14.76 C11.456,15.12 11.384,15.336 11.528,15.552 L11.24,15.84 L11.2323951,15.8501728 L11.2323951,15.8501728 L11.1786667,15.9226667 C11.104,16.024 10.976,16.2 10.88,16.344 C11.384,16.128 11.744,15.552 12.248,15.48 L12.536,15.12 C12.32,16.2 11.96,16.992 11.744,17.712 L12.32,18.144 L12.32,20.952 L9.224,24.192 L9.224,33.048 L9.8,46.296 C9.584,46.296 9.584,46.512 9.368,46.656 C9.656,47.016 9.944,47.088 10.088,47.232 L9.944,47.664 C10.664,46.944 10.736,46.368 11.744,46.008 L9.584,48.528 C10.736,48.168 11.744,48.672 12.392,47.52 C12.68,47.88 12.896,47.88 12.824,48.168 C13.544,48.168 14.84,48.24 15.272,48.24 L15.776,48.24 C16.208,48.24 17.36,47.88 18.008,47.88 L18.296,47.52 C18.512,47.664 18.008,47.88 18.512,47.88 C18.944,47.88 18.944,47.664 19.088,47.664 C19.088,47.16 19.304,46.584 19.304,46.152 L19.304,40.896 C19.304,40.464 18.584,38.16 18.584,37.656 C18.584,37.224 18.944,36.792 18.944,36.792 C18.728,36.576 18.584,36.216 18.368,36.072 L18.368,35.568 C18.872,34.992 18.656,34.344 18.584,34.128 L19.088,33.768 L19.088,20.16 C18.152,19.8 17.936,20.736 17.072,21.384 C16.856,21.24 16.928,21.168 16.928,21.168 L18.986,18.492 L18.9688411,18.512193 C18.8187456,18.6744142 18.6227692,18.7809231 18.512,18.504 L17.072,19.8 C17.216,19.08 19.016,18.144 19.016,18.072 L19.015,14.906 L18.9615781,15.0451875 C18.832625,15.38775 18.683,15.813 18.368,16.128 L18.944,16.488 C18.584,16.992 18.8,17.28 18.44,17.784 C18.296,17.784 18.152,17.64 18.152,17.64 L17.792,18 C17.576,17.784 17.648,17.712 17.648,17.712 C17.864,17.352 18.152,16.92 18.152,16.56 C17.792,16.92 17.288,17.496 17,17.784 C16.856,17.784 16.784,17.712 16.784,17.712 C17.216,17.136 17.288,16.632 17.648,15.84 L17.216,16.2 C17.072,15.984 17.144,15.912 17.144,15.912 L18.656,14.184 L18.944,14.472 L18.584,14.904 L19.088,14.472 C19.04,14.232 18.984,13.984 18.936,13.7386667 L18.905,13.572 L18.8289383,13.641679 C18.5342222,13.9466667 18.328,14.416 18.008,14.544 L17.792,14.4 L17.48,14.774 Z" id="I"></path>
            <path d="M35.488,1.8 L35.272,1.656 L35.704,1.224 L35.92,1.368 L35.488,1.8 Z M37.792,1.8 L37.648,1.656 L38.08,1.224 L38.296,1.368 L37.792,1.8 Z M35.92,3.024 C35.92,2.664 36.496,1.944 37.072,1.44 C37.072,1.44 37.288,1.656 37.504,1.656 L35.92,3.024 Z M37.792,2.376 L37.648,2.16 L38.224,1.584 L38.44,1.728 L37.792,2.376 Z M37.504,4.464 L37.936,3.96 C37.936,3.96 38.224,4.176 38.368,4.176 C38.224,4.392 37.72,4.464 37.504,4.464 Z M29.8,6.12 C29.8,5.904 29.728,5.616 29.584,5.472 C29.944,5.112 30.304,4.536 30.808,4.32 C30.664,4.68 30.304,5.112 29.944,5.472 C30.088,5.616 30.448,5.256 30.664,5.256 L29.8,6.12 Z M36.28,5.4 L37.072,4.464 C37,4.752 36.928,5.544 36.28,5.4 Z M36.28,7.488 L37.864,5.328 C37.648,5.112 37.648,5.184 37.36,5.4 C37.36,5.184 37.648,4.824 37.792,4.68 C37.792,4.824 37.936,5.04 38.008,5.04 L38.512,4.68 C38.728,5.544 37.792,6.12 37.432,6.624 L37.288,6.624 L36.28,7.488 Z M31.024,6.048 C31.24,5.904 31.6,5.544 31.384,5.328 L31.312,5.256 C31.384,5.112 31.888,4.68 32.248,4.896 C32.248,5.256 31.6,5.904 31.024,6.048 Z M29.944,9.864 C29.944,9.864 29.778625,9.698625 29.6408125,9.51257812 L29.594,9.447 L29.608,9.405 L30.808,7.992 L30.736,7.92 L29.8,8.784 C30.16,7.992 29.944,8.28 29.584,7.848 C29.944,7.272 30.448,6.696 31.168,6.336 L30.304,7.272 L30.376,7.344 L32.248,5.544 C32.248,6.12 32.032,6.624 31.888,7.128 L31.672,7.128 C31.24,7.56 30.952,7.704 31.096,8.208 C30.664,8.856 30.088,9.36 29.944,9.864 Z M36.496,6.264 L36.208,6.264 L36.208,5.76 L36.496,5.76 L36.496,6.264 Z M29.8,6.84 C29.8,6.48 30.376,6.12 30.376,5.76 C30.376,5.76 30.664,5.976 30.808,5.976 C30.664,6.192 30.16,6.624 29.8,6.84 Z M29.872,10.8 C29.872,10.8 29.728,10.512 29.584,10.296 L32.248,8.28 L29.872,10.8 Z M38.872,10.08 C38.872,9.72 39.016,9.144 38.8,9 C38.8,9.144 38.584,9.36 38.44,9.36 L38.872,10.08 Z M31.888,10.44 L31.672,10.296 L32.104,9.648 L32.32,9.792 L31.888,10.44 Z M38.584,11.52 L39.016,10.656 L38.728,10.584 L38.368,11.376 L38.584,11.52 Z M30.88,14.544 L32.392,13.104 C32.392,13.32 32.248,13.464 32.392,13.68 C32.608,13.68 32.248,14.184 32.032,14.4 C31.888,14.4 31.96,14.112 32.104,13.968 C31.6,13.968 31.528,14.256 30.88,14.544 Z M37.504,14.04 L37.288,13.896 L37.648,13.248 L37.936,13.392 L37.504,14.04 Z M32.968,14.976 L32.752,14.76 L33.616,14.112 L33.76,14.4 L32.968,14.976 Z M37.504,18.432 C37.72,18.288 38.224,17.856 38.368,18.072 C38.224,18.216 37.72,18.432 37.504,18.432 Z M32.752,19.44 L32.608,19.296 L33.184,18.648 L33.4,18.864 L32.752,19.44 Z M38.944,19.8 L39.16,19.296 L38.944,19.224 L38.728,19.656 L38.944,19.8 Z M35.488,20.88 L35.272,20.736 L35.848,19.944 L36.136,20.088 L35.488,20.88 Z M38.152,23.4 C38.008,23.4 37.648,23.112 37.72,22.968 C37.648,22.752 37.36,22.968 37,22.752 C37.504,22.032 38.296,21.384 38.656,20.664 C38.656,21.24 38.728,22.032 38.728,22.752 L38.152,23.4 Z M29.512,23.256 C29.656,23.112 30.52,22.176 31.384,21.24 L30.304,22.32 C30.304,22.32 29.656,22.536 29.512,22.752 C29.584,22.896 29.656,23.112 29.512,23.256 Z M30.016,24.48 C30.016,24.264 29.944,23.76 29.944,23.616 C30.16,23.616 30.376,23.4 30.592,23.544 C30.952,23.04 31.528,22.68 31.888,22.32 L31.888,22.968 L31.312,23.544 L31.096,23.4 L30.016,24.48 Z M35.488,23.256 L35.272,23.04 L35.92,22.608 L36.136,22.824 L35.488,23.256 Z M38.296,24.48 C38.296,24.264 38.44,23.904 38.44,23.544 L38.08,23.904 C38.08,23.76 38.512,23.184 38.728,23.184 C38.728,23.184 38.728,23.472 38.944,23.616 C38.728,23.832 38.44,24.12 38.296,24.48 Z M31.816,24.264 L31.528,24.264 L31.312,23.616 L31.6,23.544 L31.816,24.264 Z M38.584,24.84 L38.368,24.696 L38.584,24.264 L38.8,24.336 L38.584,24.84 Z M30.664,25.488 L31.888,24.264 C31.888,24.624 31.24,25.344 30.664,25.488 Z M31.528,26.496 L31.312,26.28 L31.744,25.704 L31.96,25.848 L31.528,26.496 Z M30.664,27.648 L31.528,26.784 C31.528,27 31.24,27.504 30.664,27.648 Z M29.872,28.08 L29.728,27.936 L30.16,27.504 L30.376,27.648 L29.872,28.08 Z M31.6,28.224 L31.312,28.152 L31.528,27.72 L31.816,27.792 L31.6,28.224 Z M30.088,28.44 L29.872,28.296 L30.304,27.864 L30.52,28.008 L30.088,28.44 Z M29.8,29.304 L30.376,28.584 C30.736,28.584 30.592,28.44 30.808,28.224 L30.808,28.944 C30.664,28.944 30.16,29.088 29.8,29.304 Z M31.384,28.944 L31.168,28.872 L31.384,28.44 L31.6,28.512 L31.384,28.944 Z M30.592,30.6 L30.448,30.456 L30.88,30.024 L31.096,30.168 L30.592,30.6 Z M29.728,31.536 L29.512,31.32 L30.16,30.744 L30.376,30.888 L29.728,31.536 Z M29.584,32.904 C29.8,32.688 30.16,32.4 30.16,32.04 L29.8,32.4 L29.8,31.68 C29.944,31.68 30.448,31.752 30.664,32.112 C30.448,32.328 29.944,32.688 29.584,32.904 Z M29.872,33.84 L29.728,33.696 L30.304,33.048 L30.52,33.264 L29.872,33.84 Z M30.16,35.064 L29.872,34.992 L30.088,34.56 L30.376,34.632 L30.16,35.064 Z M29.944,44.424 C30.088,44.064 30.808,43.704 31.168,43.344 C30.952,43.704 30.304,44.424 29.944,44.424 Z M31.816,44.568 L31.528,44.568 L31.528,44.136 L31.816,44.136 L31.816,44.568 Z M29.584,46.728 C29.8,46.512 30.304,46.368 30.448,46.512 C30.448,46.512 30.16,46.728 29.584,46.728 Z M30.611,18.909 L30.6975232,18.8479227 C31.0396672,18.6144768 31.37248,18.45792 31.528,18.432 C31.4272,18.3312 31.25584,18.15984 31.211488,17.992008 L31.2,17.922 L31.1614927,18.0371545 C31.0512886,18.3369096 30.8793703,18.6418076 30.6817376,18.8438484 L30.611,18.909 Z M29.754,17.188 L29.8,17.064 C29.584,17.64 29.44,18.072 29.224,18.432 L29.224,22.32 C29.8,21.744 30.808,20.88 31.384,20.16 L29.872,21.6 C29.656,21.384 29.728,21.312 29.728,21.312 C30.304,20.592 30.592,20.16 30.808,19.584 C30.448,19.944 30.088,20.376 29.728,20.52 C29.48608,19.99584 29.9441152,19.4265216 30.469888,19.0143544 L30.492,18.998 L30.4163032,19.0384373 C30.3554286,19.0653061 30.2937143,19.08 30.232,19.08 C29.728,19.08 29.728,18.864 29.584,18.432 C29.944,18.072 29.872,17.784 30.448,17.64 L31.024,17.064 C30.808,17.208 30.592,16.992 30.592,16.776 C30.592,16.992 30.232,17.28 30.016,17.424 C29.92,17.328 29.792,17.296 29.76,17.2213333 L29.754,17.188 Z M29.597,13.481 L29.584,13.536 C29.728,13.032 29.728,12.384 29.656,11.88 C29.576,12.36 29.5848889,12.9066667 29.5962469,13.4212346 L29.597,13.481 Z M37.48,14.774 L37.517248,14.743296 C37.62784,14.67648 37.72,14.8032 37.72,14.976 C37.36,15.192 37.216,15.48 36.856,15.624 L36.568,15.408 L36.928,15.048 C37.288,14.544 37.864,13.752 38.296,13.176 C38.008,13.032 37.864,13.176 37.504,13.032 L38.224,12.312 L37.936,12.024 L37.216,12.744 C37.072,12.6 37.504,12.384 37.072,12.384 C36.568,12.384 36.784,12.816 36.568,12.816 C36.496,11.376 37.36,11.52 37.792,10.656 L36.712,11.664 L36.424,11.376 C37.216,10.296 37,9.216 38.656,7.92 C38.8,8.28 38.656,8.496 38.512,8.712 C38.656,8.496 39.016,8.784 39.016,8.784 L39.016,6.264 C38.728,6.552 38.368,7.2 38.08,7.488 L38.512,7.2 L38.728,7.416 L37.936,8.28 C36.784,8.496 37.216,8.784 36.712,9.144 C36.496,8.784 36.208,8.712 36.064,8.352 C36.424,7.992 37,7.632 37.288,7.704 C36.856,6.912 38.224,6.696 38.872,5.904 C38.944,5.544 39.088,5.328 39.088,4.896 C39.088,4.464 38.872,4.68 38.872,4.68 C38.944,4.176 38.656,3.672 38.656,3.312 C38.656,3.456 38.512,3.744 38.368,3.744 C38.152,3.6 38.368,3.456 38.224,3.312 C38.584,2.952 38.728,2.736 38.944,2.592 C38.728,2.448 38.656,2.16 38.656,2.16 C38.728,2.52 38.44,2.736 38.152,3.024 C37.936,2.88 37.864,2.808 37.864,2.592 C38.224,2.16 38.8,1.872 38.944,1.512 C38.728,1.296 38.296,1.224 38.152,1.08 L37.792,1.44 L37.288,1.152 C37.432,0.72 37.792,0.792 38.224,0.648 C38.224,0.504 37.792,0.144 37.648,0 C37.432,0 37,0.144 36.856,0.36 L33.184,0.216 C33.184,0.576 32.968,0.864 32.536,0.864 L29.44,0.864 L29.44,4.104 C29.584,4.104 29.728,4.248 29.728,4.248 C29.224,4.68 29.368,4.68 29.224,5.184 C29.44,5.184 29.584,5.328 29.584,5.328 C29.44,5.832 29.44,6.408 29.224,6.984 C29.512,6.768 29.584,6.768 29.728,6.912 C29.44,7.416 29.44,8.424 29.44,8.784 C29.584,8.784 29.8,8.928 29.8,8.928 C29.7328,9.072 29.67584,9.2096 29.628608,9.34216533 L29.608,9.405 L29.584,9.432 L29.584,9.432 L29.594,9.447 L29.564992,9.537408 C29.3392,10.30464 29.4544,10.9152 29.8,11.664 L31.456,9.504 C31.456,10.08 31.312,10.296 31.096,10.512 C31.312,10.296 31.528,10.368 31.744,10.512 L30.664,11.808 C31.024,11.448 31.24,11.088 31.6,10.944 C31.816,11.16 31.528,11.232 31.744,11.376 C31.024,11.736 30.664,12.528 30.304,12.888 L31.096,12.24 C31.312,12.384 31.168,12.456 31.168,12.456 L29.872,13.824 L29.599,13.552 L29.6026667,13.7253333 C29.608,14.024 29.608,14.304 29.584,14.544 L32.32,11.664 L32.464,12.456 L32.032,12.96 L31.816,12.384 L29.872,15.12 C29.656,14.904 29.656,14.76 29.656,14.76 C29.566,15.21 29.5885,15.66 29.582875,16.0572656 L29.579,16.164 L29.588608,16.135488 C29.83744,15.52032 30.6208,15.3936 31.312,14.76 C31.456,15.12 31.384,15.336 31.528,15.552 L31.24,15.84 L31.2323951,15.8501728 L31.2323951,15.8501728 L31.1786667,15.9226667 C31.104,16.024 30.976,16.2 30.88,16.344 C31.384,16.128 31.744,15.552 32.248,15.48 L32.536,15.12 C32.32,16.2 31.96,16.992 31.744,17.712 L32.32,18.144 L32.32,20.952 L29.224,24.192 L29.224,33.048 L29.8,46.296 C29.584,46.296 29.584,46.512 29.368,46.656 C29.656,47.016 29.944,47.088 30.088,47.232 L29.944,47.664 C30.664,46.944 30.736,46.368 31.744,46.008 L29.584,48.528 C30.736,48.168 31.744,48.672 32.392,47.52 C32.68,47.88 32.896,47.88 32.824,48.168 C33.544,48.168 34.84,48.24 35.272,48.24 L35.776,48.24 C36.208,48.24 37.36,47.88 38.008,47.88 L38.296,47.52 C38.512,47.664 38.008,47.88 38.512,47.88 C38.944,47.88 38.944,47.664 39.088,47.664 C39.088,47.16 39.304,46.584 39.304,46.152 L39.304,40.896 C39.304,40.464 38.584,38.16 38.584,37.656 C38.584,37.224 38.944,36.792 38.944,36.792 C38.728,36.576 38.584,36.216 38.368,36.072 L38.368,35.568 C38.872,34.992 38.656,34.344 38.584,34.128 L39.088,33.768 L39.088,20.16 C38.152,19.8 37.936,20.736 37.072,21.384 C36.856,21.24 36.928,21.168 36.928,21.168 L38.986,18.492 L38.9688411,18.512193 C38.8187456,18.6744142 38.6227692,18.7809231 38.512,18.504 L37.072,19.8 C37.216,19.08 39.016,18.144 39.016,18.072 L39.015,14.906 L38.9615781,15.0451875 C38.832625,15.38775 38.683,15.813 38.368,16.128 L38.944,16.488 C38.584,16.992 38.8,17.28 38.44,17.784 C38.296,17.784 38.152,17.64 38.152,17.64 L37.792,18 C37.576,17.784 37.648,17.712 37.648,17.712 C37.864,17.352 38.152,16.92 38.152,16.56 C37.792,16.92 37.288,17.496 37,17.784 C36.856,17.784 36.784,17.712 36.784,17.712 C37.216,17.136 37.288,16.632 37.648,15.84 L37.216,16.2 C37.072,15.984 37.144,15.912 37.144,15.912 L38.656,14.184 L38.944,14.472 L38.584,14.904 L39.088,14.472 C39.04,14.232 38.984,13.984 38.936,13.7386667 L38.905,13.572 L38.8289383,13.641679 C38.5342222,13.9466667 38.328,14.416 38.008,14.544 L37.792,14.4 L37.48,14.774 Z" id="I"></path>
            <path d="M25.488,11.8 L25.272,11.656 L25.704,11.224 L25.92,11.368 L25.488,11.8 Z M27.792,11.8 L27.648,11.656 L28.08,11.224 L28.296,11.368 L27.792,11.8 Z M25.92,13.024 C25.92,12.664 26.496,11.944 27.072,11.44 C27.072,11.44 27.288,11.656 27.504,11.656 L25.92,13.024 Z M27.792,12.376 L27.648,12.16 L28.224,11.584 L28.44,11.728 L27.792,12.376 Z M27.504,14.464 L27.936,13.96 C27.936,13.96 28.224,14.176 28.368,14.176 C28.224,14.392 27.72,14.464 27.504,14.464 Z M19.8,16.12 C19.8,15.904 19.728,15.616 19.584,15.472 C19.944,15.112 20.304,14.536 20.808,14.32 C20.664,14.68 20.304,15.112 19.944,15.472 C20.088,15.616 20.448,15.256 20.664,15.256 L19.8,16.12 Z M26.28,15.4 L27.072,14.464 C27,14.752 26.928,15.544 26.28,15.4 Z M26.28,17.488 L27.864,15.328 C27.648,15.112 27.648,15.184 27.36,15.4 C27.36,15.184 27.648,14.824 27.792,14.68 C27.792,14.824 27.936,15.04 28.008,15.04 L28.512,14.68 C28.728,15.544 27.792,16.12 27.432,16.624 L27.288,16.624 L26.28,17.488 Z M21.024,16.048 C21.24,15.904 21.6,15.544 21.384,15.328 L21.312,15.256 C21.384,15.112 21.888,14.68 22.248,14.896 C22.248,15.256 21.6,15.904 21.024,16.048 Z M19.944,19.864 C19.944,19.864 19.778625,19.698625 19.6408125,19.5125781 L19.594,19.447 L19.608,19.405 L20.808,17.992 L20.736,17.92 L19.8,18.784 C20.16,17.992 19.944,18.28 19.584,17.848 C19.944,17.272 20.448,16.696 21.168,16.336 L20.304,17.272 L20.376,17.344 L22.248,15.544 C22.248,16.12 22.032,16.624 21.888,17.128 L21.672,17.128 C21.24,17.56 20.952,17.704 21.096,18.208 C20.664,18.856 20.088,19.36 19.944,19.864 Z M26.496,16.264 L26.208,16.264 L26.208,15.76 L26.496,15.76 L26.496,16.264 Z M19.8,16.84 C19.8,16.48 20.376,16.12 20.376,15.76 C20.376,15.76 20.664,15.976 20.808,15.976 C20.664,16.192 20.16,16.624 19.8,16.84 Z M19.872,20.8 C19.872,20.8 19.728,20.512 19.584,20.296 L22.248,18.28 L19.872,20.8 Z M28.872,20.08 C28.872,19.72 29.016,19.144 28.8,19 C28.8,19.144 28.584,19.36 28.44,19.36 L28.872,20.08 Z M21.888,20.44 L21.672,20.296 L22.104,19.648 L22.32,19.792 L21.888,20.44 Z M28.584,21.52 L29.016,20.656 L28.728,20.584 L28.368,21.376 L28.584,21.52 Z M20.88,24.544 L22.392,23.104 C22.392,23.32 22.248,23.464 22.392,23.68 C22.608,23.68 22.248,24.184 22.032,24.4 C21.888,24.4 21.96,24.112 22.104,23.968 C21.6,23.968 21.528,24.256 20.88,24.544 Z M27.504,24.04 L27.288,23.896 L27.648,23.248 L27.936,23.392 L27.504,24.04 Z M22.968,24.976 L22.752,24.76 L23.616,24.112 L23.76,24.4 L22.968,24.976 Z M27.504,28.432 C27.72,28.288 28.224,27.856 28.368,28.072 C28.224,28.216 27.72,28.432 27.504,28.432 Z M22.752,29.44 L22.608,29.296 L23.184,28.648 L23.4,28.864 L22.752,29.44 Z M28.944,29.8 L29.16,29.296 L28.944,29.224 L28.728,29.656 L28.944,29.8 Z M25.488,30.88 L25.272,30.736 L25.848,29.944 L26.136,30.088 L25.488,30.88 Z M28.152,33.4 C28.008,33.4 27.648,33.112 27.72,32.968 C27.648,32.752 27.36,32.968 27,32.752 C27.504,32.032 28.296,31.384 28.656,30.664 C28.656,31.24 28.728,32.032 28.728,32.752 L28.152,33.4 Z M19.512,33.256 C19.656,33.112 20.52,32.176 21.384,31.24 L20.304,32.32 C20.304,32.32 19.656,32.536 19.512,32.752 C19.584,32.896 19.656,33.112 19.512,33.256 Z M20.016,34.48 C20.016,34.264 19.944,33.76 19.944,33.616 C20.16,33.616 20.376,33.4 20.592,33.544 C20.952,33.04 21.528,32.68 21.888,32.32 L21.888,32.968 L21.312,33.544 L21.096,33.4 L20.016,34.48 Z M25.488,33.256 L25.272,33.04 L25.92,32.608 L26.136,32.824 L25.488,33.256 Z M28.296,34.48 C28.296,34.264 28.44,33.904 28.44,33.544 L28.08,33.904 C28.08,33.76 28.512,33.184 28.728,33.184 C28.728,33.184 28.728,33.472 28.944,33.616 C28.728,33.832 28.44,34.12 28.296,34.48 Z M21.816,34.264 L21.528,34.264 L21.312,33.616 L21.6,33.544 L21.816,34.264 Z M28.584,34.84 L28.368,34.696 L28.584,34.264 L28.8,34.336 L28.584,34.84 Z M20.664,35.488 L21.888,34.264 C21.888,34.624 21.24,35.344 20.664,35.488 Z M21.528,36.496 L21.312,36.28 L21.744,35.704 L21.96,35.848 L21.528,36.496 Z M20.664,37.648 L21.528,36.784 C21.528,37 21.24,37.504 20.664,37.648 Z M19.872,38.08 L19.728,37.936 L20.16,37.504 L20.376,37.648 L19.872,38.08 Z M21.6,38.224 L21.312,38.152 L21.528,37.72 L21.816,37.792 L21.6,38.224 Z M20.088,38.44 L19.872,38.296 L20.304,37.864 L20.52,38.008 L20.088,38.44 Z M19.8,39.304 L20.376,38.584 C20.736,38.584 20.592,38.44 20.808,38.224 L20.808,38.944 C20.664,38.944 20.16,39.088 19.8,39.304 Z M21.384,38.944 L21.168,38.872 L21.384,38.44 L21.6,38.512 L21.384,38.944 Z M20.592,40.6 L20.448,40.456 L20.88,40.024 L21.096,40.168 L20.592,40.6 Z M19.728,41.536 L19.512,41.32 L20.16,40.744 L20.376,40.888 L19.728,41.536 Z M19.584,42.904 C19.8,42.688 20.16,42.4 20.16,42.04 L19.8,42.4 L19.8,41.68 C19.944,41.68 20.448,41.752 20.664,42.112 C20.448,42.328 19.944,42.688 19.584,42.904 Z M19.872,43.84 L19.728,43.696 L20.304,43.048 L20.52,43.264 L19.872,43.84 Z M20.16,45.064 L19.872,44.992 L20.088,44.56 L20.376,44.632 L20.16,45.064 Z M19.944,54.424 C20.088,54.064 20.808,53.704 21.168,53.344 C20.952,53.704 20.304,54.424 19.944,54.424 Z M21.816,54.568 L21.528,54.568 L21.528,54.136 L21.816,54.136 L21.816,54.568 Z M19.584,56.728 C19.8,56.512 20.304,56.368 20.448,56.512 C20.448,56.512 20.16,56.728 19.584,56.728 Z M20.611,28.909 L20.6975232,28.8479227 C21.0396672,28.6144768 21.37248,28.45792 21.528,28.432 C21.4272,28.3312 21.25584,28.15984 21.211488,27.992008 L21.2,27.922 L21.1614927,28.0371545 C21.0512886,28.3369096 20.8793703,28.6418076 20.6817376,28.8438484 L20.611,28.909 Z M19.754,27.188 L19.8,27.064 C19.584,27.64 19.44,28.072 19.224,28.432 L19.224,32.32 C19.8,31.744 20.808,30.88 21.384,30.16 L19.872,31.6 C19.656,31.384 19.728,31.312 19.728,31.312 C20.304,30.592 20.592,30.16 20.808,29.584 C20.448,29.944 20.088,30.376 19.728,30.52 C19.48608,29.99584 19.9441152,29.4265216 20.469888,29.0143544 L20.492,28.998 L20.4163032,29.0384373 C20.3554286,29.0653061 20.2937143,29.08 20.232,29.08 C19.728,29.08 19.728,28.864 19.584,28.432 C19.944,28.072 19.872,27.784 20.448,27.64 L21.024,27.064 C20.808,27.208 20.592,26.992 20.592,26.776 C20.592,26.992 20.232,27.28 20.016,27.424 C19.92,27.328 19.792,27.296 19.76,27.2213333 L19.754,27.188 Z M19.597,23.481 L19.584,23.536 C19.728,23.032 19.728,22.384 19.656,21.88 C19.576,22.36 19.5848889,22.9066667 19.5962469,23.4212346 L19.597,23.481 Z M27.48,24.774 L27.517248,24.743296 C27.62784,24.67648 27.72,24.8032 27.72,24.976 C27.36,25.192 27.216,25.48 26.856,25.624 L26.568,25.408 L26.928,25.048 C27.288,24.544 27.864,23.752 28.296,23.176 C28.008,23.032 27.864,23.176 27.504,23.032 L28.224,22.312 L27.936,22.024 L27.216,22.744 C27.072,22.6 27.504,22.384 27.072,22.384 C26.568,22.384 26.784,22.816 26.568,22.816 C26.496,21.376 27.36,21.52 27.792,20.656 L26.712,21.664 L26.424,21.376 C27.216,20.296 27,19.216 28.656,17.92 C28.8,18.28 28.656,18.496 28.512,18.712 C28.656,18.496 29.016,18.784 29.016,18.784 L29.016,16.264 C28.728,16.552 28.368,17.2 28.08,17.488 L28.512,17.2 L28.728,17.416 L27.936,18.28 C26.784,18.496 27.216,18.784 26.712,19.144 C26.496,18.784 26.208,18.712 26.064,18.352 C26.424,17.992 27,17.632 27.288,17.704 C26.856,16.912 28.224,16.696 28.872,15.904 C28.944,15.544 29.088,15.328 29.088,14.896 C29.088,14.464 28.872,14.68 28.872,14.68 C28.944,14.176 28.656,13.672 28.656,13.312 C28.656,13.456 28.512,13.744 28.368,13.744 C28.152,13.6 28.368,13.456 28.224,13.312 C28.584,12.952 28.728,12.736 28.944,12.592 C28.728,12.448 28.656,12.16 28.656,12.16 C28.728,12.52 28.44,12.736 28.152,13.024 C27.936,12.88 27.864,12.808 27.864,12.592 C28.224,12.16 28.8,11.872 28.944,11.512 C28.728,11.296 28.296,11.224 28.152,11.08 L27.792,11.44 L27.288,11.152 C27.432,10.72 27.792,10.792 28.224,10.648 C28.224,10.504 27.792,10.144 27.648,10 C27.432,10 27,10.144 26.856,10.36 L23.184,10.216 C23.184,10.576 22.968,10.864 22.536,10.864 L19.44,10.864 L19.44,14.104 C19.584,14.104 19.728,14.248 19.728,14.248 C19.224,14.68 19.368,14.68 19.224,15.184 C19.44,15.184 19.584,15.328 19.584,15.328 C19.44,15.832 19.44,16.408 19.224,16.984 C19.512,16.768 19.584,16.768 19.728,16.912 C19.44,17.416 19.44,18.424 19.44,18.784 C19.584,18.784 19.8,18.928 19.8,18.928 C19.7328,19.072 19.67584,19.2096 19.628608,19.3421653 L19.608,19.405 L19.584,19.432 L19.584,19.432 L19.594,19.447 L19.564992,19.537408 C19.3392,20.30464 19.4544,20.9152 19.8,21.664 L21.456,19.504 C21.456,20.08 21.312,20.296 21.096,20.512 C21.312,20.296 21.528,20.368 21.744,20.512 L20.664,21.808 C21.024,21.448 21.24,21.088 21.6,20.944 C21.816,21.16 21.528,21.232 21.744,21.376 C21.024,21.736 20.664,22.528 20.304,22.888 L21.096,22.24 C21.312,22.384 21.168,22.456 21.168,22.456 L19.872,23.824 L19.599,23.552 L19.6026667,23.7253333 C19.608,24.024 19.608,24.304 19.584,24.544 L22.32,21.664 L22.464,22.456 L22.032,22.96 L21.816,22.384 L19.872,25.12 C19.656,24.904 19.656,24.76 19.656,24.76 C19.566,25.21 19.5885,25.66 19.582875,26.0572656 L19.579,26.164 L19.588608,26.135488 C19.83744,25.52032 20.6208,25.3936 21.312,24.76 C21.456,25.12 21.384,25.336 21.528,25.552 L21.24,25.84 L21.2323951,25.8501728 L21.2323951,25.8501728 L21.1786667,25.9226667 C21.104,26.024 20.976,26.2 20.88,26.344 C21.384,26.128 21.744,25.552 22.248,25.48 L22.536,25.12 C22.32,26.2 21.96,26.992 21.744,27.712 L22.32,28.144 L22.32,30.952 L19.224,34.192 L19.224,43.048 L19.8,56.296 C19.584,56.296 19.584,56.512 19.368,56.656 C19.656,57.016 19.944,57.088 20.088,57.232 L19.944,57.664 C20.664,56.944 20.736,56.368 21.744,56.008 L19.584,58.528 C20.736,58.168 21.744,58.672 22.392,57.52 C22.68,57.88 22.896,57.88 22.824,58.168 C23.544,58.168 24.84,58.24 25.272,58.24 L25.776,58.24 C26.208,58.24 27.36,57.88 28.008,57.88 L28.296,57.52 C28.512,57.664 28.008,57.88 28.512,57.88 C28.944,57.88 28.944,57.664 29.088,57.664 C29.088,57.16 29.304,56.584 29.304,56.152 L29.304,50.896 C29.304,50.464 28.584,48.16 28.584,47.656 C28.584,47.224 28.944,46.792 28.944,46.792 C28.728,46.576 28.584,46.216 28.368,46.072 L28.368,45.568 C28.872,44.992 28.656,44.344 28.584,44.128 L29.088,43.768 L29.088,30.16 C28.152,29.8 27.936,30.736 27.072,31.384 C26.856,31.24 26.928,31.168 26.928,31.168 L28.986,28.492 L28.9688411,28.512193 C28.8187456,28.6744142 28.6227692,28.7809231 28.512,28.504 L27.072,29.8 C27.216,29.08 29.016,28.144 29.016,28.072 L29.015,24.906 L28.9615781,25.0451875 C28.832625,25.38775 28.683,25.813 28.368,26.128 L28.944,26.488 C28.584,26.992 28.8,27.28 28.44,27.784 C28.296,27.784 28.152,27.64 28.152,27.64 L27.792,28 C27.576,27.784 27.648,27.712 27.648,27.712 C27.864,27.352 28.152,26.92 28.152,26.56 C27.792,26.92 27.288,27.496 27,27.784 C26.856,27.784 26.784,27.712 26.784,27.712 C27.216,27.136 27.288,26.632 27.648,25.84 L27.216,26.2 C27.072,25.984 27.144,25.912 27.144,25.912 L28.656,24.184 L28.944,24.472 L28.584,24.904 L29.088,24.472 C29.04,24.232 28.984,23.984 28.936,23.7386667 L28.905,23.572 L28.8289383,23.641679 C28.5342222,23.9466667 28.328,24.416 28.008,24.544 L27.792,24.4 L27.48,24.774 Z" id="I" transform="translate(24.264000, 34.264000) rotate(90.000000) translate(-24.264000, -34.264000) "></path>
            <path d="M25.488,-7.2 L25.272,-7.344 L25.704,-7.776 L25.92,-7.632 L25.488,-7.2 Z M27.792,-7.2 L27.648,-7.344 L28.08,-7.776 L28.296,-7.632 L27.792,-7.2 Z M25.92,-5.976 C25.92,-6.336 26.496,-7.056 27.072,-7.56 C27.072,-7.56 27.288,-7.344 27.504,-7.344 L25.92,-5.976 Z M27.792,-6.624 L27.648,-6.84 L28.224,-7.416 L28.44,-7.272 L27.792,-6.624 Z M27.504,-4.536 L27.936,-5.04 C27.936,-5.04 28.224,-4.824 28.368,-4.824 C28.224,-4.608 27.72,-4.536 27.504,-4.536 Z M19.8,-2.88 C19.8,-3.096 19.728,-3.384 19.584,-3.528 C19.944,-3.888 20.304,-4.464 20.808,-4.68 C20.664,-4.32 20.304,-3.888 19.944,-3.528 C20.088,-3.384 20.448,-3.744 20.664,-3.744 L19.8,-2.88 Z M26.28,-3.6 L27.072,-4.536 C27,-4.248 26.928,-3.456 26.28,-3.6 Z M26.28,-1.512 L27.864,-3.672 C27.648,-3.888 27.648,-3.816 27.36,-3.6 C27.36,-3.816 27.648,-4.176 27.792,-4.32 C27.792,-4.176 27.936,-3.96 28.008,-3.96 L28.512,-4.32 C28.728,-3.456 27.792,-2.88 27.432,-2.376 L27.288,-2.376 L26.28,-1.512 Z M21.024,-2.952 C21.24,-3.096 21.6,-3.456 21.384,-3.672 L21.312,-3.744 C21.384,-3.888 21.888,-4.32 22.248,-4.104 C22.248,-3.744 21.6,-3.096 21.024,-2.952 Z M19.944,0.864 C19.944,0.864 19.778625,0.698625 19.6408125,0.512578125 L19.594,0.447 L19.608,0.405 L20.808,-1.008 L20.736,-1.08 L19.8,-0.216 C20.16,-1.008 19.944,-0.72 19.584,-1.152 C19.944,-1.728 20.448,-2.304 21.168,-2.664 L20.304,-1.728 L20.376,-1.656 L22.248,-3.456 C22.248,-2.88 22.032,-2.376 21.888,-1.872 L21.672,-1.872 C21.24,-1.44 20.952,-1.296 21.096,-0.792 C20.664,-0.144 20.088,0.36 19.944,0.864 Z M26.496,-2.736 L26.208,-2.736 L26.208,-3.24 L26.496,-3.24 L26.496,-2.736 Z M19.8,-2.16 C19.8,-2.52 20.376,-2.88 20.376,-3.24 C20.376,-3.24 20.664,-3.024 20.808,-3.024 C20.664,-2.808 20.16,-2.376 19.8,-2.16 Z M19.872,1.8 C19.872,1.8 19.728,1.512 19.584,1.296 L22.248,-0.72 L19.872,1.8 Z M28.872,1.08 C28.872,0.72 29.016,0.144 28.8,0 C28.8,0.144 28.584,0.36 28.44,0.36 L28.872,1.08 Z M21.888,1.44 L21.672,1.296 L22.104,0.648 L22.32,0.792 L21.888,1.44 Z M28.584,2.52 L29.016,1.656 L28.728,1.584 L28.368,2.376 L28.584,2.52 Z M20.88,5.544 L22.392,4.104 C22.392,4.32 22.248,4.464 22.392,4.68 C22.608,4.68 22.248,5.184 22.032,5.4 C21.888,5.4 21.96,5.112 22.104,4.968 C21.6,4.968 21.528,5.256 20.88,5.544 Z M27.504,5.04 L27.288,4.896 L27.648,4.248 L27.936,4.392 L27.504,5.04 Z M22.968,5.976 L22.752,5.76 L23.616,5.112 L23.76,5.4 L22.968,5.976 Z M27.504,9.432 C27.72,9.288 28.224,8.856 28.368,9.072 C28.224,9.216 27.72,9.432 27.504,9.432 Z M22.752,10.44 L22.608,10.296 L23.184,9.648 L23.4,9.864 L22.752,10.44 Z M28.944,10.8 L29.16,10.296 L28.944,10.224 L28.728,10.656 L28.944,10.8 Z M25.488,11.88 L25.272,11.736 L25.848,10.944 L26.136,11.088 L25.488,11.88 Z M28.152,14.4 C28.008,14.4 27.648,14.112 27.72,13.968 C27.648,13.752 27.36,13.968 27,13.752 C27.504,13.032 28.296,12.384 28.656,11.664 C28.656,12.24 28.728,13.032 28.728,13.752 L28.152,14.4 Z M19.512,14.256 C19.656,14.112 20.52,13.176 21.384,12.24 L20.304,13.32 C20.304,13.32 19.656,13.536 19.512,13.752 C19.584,13.896 19.656,14.112 19.512,14.256 Z M20.016,15.48 C20.016,15.264 19.944,14.76 19.944,14.616 C20.16,14.616 20.376,14.4 20.592,14.544 C20.952,14.04 21.528,13.68 21.888,13.32 L21.888,13.968 L21.312,14.544 L21.096,14.4 L20.016,15.48 Z M25.488,14.256 L25.272,14.04 L25.92,13.608 L26.136,13.824 L25.488,14.256 Z M28.296,15.48 C28.296,15.264 28.44,14.904 28.44,14.544 L28.08,14.904 C28.08,14.76 28.512,14.184 28.728,14.184 C28.728,14.184 28.728,14.472 28.944,14.616 C28.728,14.832 28.44,15.12 28.296,15.48 Z M21.816,15.264 L21.528,15.264 L21.312,14.616 L21.6,14.544 L21.816,15.264 Z M28.584,15.84 L28.368,15.696 L28.584,15.264 L28.8,15.336 L28.584,15.84 Z M20.664,16.488 L21.888,15.264 C21.888,15.624 21.24,16.344 20.664,16.488 Z M21.528,17.496 L21.312,17.28 L21.744,16.704 L21.96,16.848 L21.528,17.496 Z M20.664,18.648 L21.528,17.784 C21.528,18 21.24,18.504 20.664,18.648 Z M19.872,19.08 L19.728,18.936 L20.16,18.504 L20.376,18.648 L19.872,19.08 Z M21.6,19.224 L21.312,19.152 L21.528,18.72 L21.816,18.792 L21.6,19.224 Z M20.088,19.44 L19.872,19.296 L20.304,18.864 L20.52,19.008 L20.088,19.44 Z M19.8,20.304 L20.376,19.584 C20.736,19.584 20.592,19.44 20.808,19.224 L20.808,19.944 C20.664,19.944 20.16,20.088 19.8,20.304 Z M21.384,19.944 L21.168,19.872 L21.384,19.44 L21.6,19.512 L21.384,19.944 Z M20.592,21.6 L20.448,21.456 L20.88,21.024 L21.096,21.168 L20.592,21.6 Z M19.728,22.536 L19.512,22.32 L20.16,21.744 L20.376,21.888 L19.728,22.536 Z M19.584,23.904 C19.8,23.688 20.16,23.4 20.16,23.04 L19.8,23.4 L19.8,22.68 C19.944,22.68 20.448,22.752 20.664,23.112 C20.448,23.328 19.944,23.688 19.584,23.904 Z M19.872,24.84 L19.728,24.696 L20.304,24.048 L20.52,24.264 L19.872,24.84 Z M20.16,26.064 L19.872,25.992 L20.088,25.56 L20.376,25.632 L20.16,26.064 Z M19.944,35.424 C20.088,35.064 20.808,34.704 21.168,34.344 C20.952,34.704 20.304,35.424 19.944,35.424 Z M21.816,35.568 L21.528,35.568 L21.528,35.136 L21.816,35.136 L21.816,35.568 Z M19.584,37.728 C19.8,37.512 20.304,37.368 20.448,37.512 C20.448,37.512 20.16,37.728 19.584,37.728 Z M20.611,9.909 L20.6975232,9.84792269 C21.0396672,9.6144768 21.37248,9.45792 21.528,9.432 C21.4272,9.3312 21.25584,9.15984 21.211488,8.992008 L21.2,8.922 L21.1614927,9.03715452 C21.0512886,9.33690962 20.8793703,9.64180758 20.6817376,9.8438484 L20.611,9.909 Z M19.754,8.188 L19.8,8.064 C19.584,8.64 19.44,9.072 19.224,9.432 L19.224,13.32 C19.8,12.744 20.808,11.88 21.384,11.16 L19.872,12.6 C19.656,12.384 19.728,12.312 19.728,12.312 C20.304,11.592 20.592,11.16 20.808,10.584 C20.448,10.944 20.088,11.376 19.728,11.52 C19.48608,10.99584 19.9441152,10.4265216 20.469888,10.0143544 L20.492,9.998 L20.4163032,10.0384373 C20.3554286,10.0653061 20.2937143,10.08 20.232,10.08 C19.728,10.08 19.728,9.864 19.584,9.432 C19.944,9.072 19.872,8.784 20.448,8.64 L21.024,8.064 C20.808,8.208 20.592,7.992 20.592,7.776 C20.592,7.992 20.232,8.28 20.016,8.424 C19.92,8.328 19.792,8.296 19.76,8.22133333 L19.754,8.188 Z M19.597,4.481 L19.584,4.536 C19.728,4.032 19.728,3.384 19.656,2.88 C19.576,3.36 19.5848889,3.90666667 19.5962469,4.42123457 L19.597,4.481 Z M27.48,5.774 L27.517248,5.743296 C27.62784,5.67648 27.72,5.8032 27.72,5.976 C27.36,6.192 27.216,6.48 26.856,6.624 L26.568,6.408 L26.928,6.048 C27.288,5.544 27.864,4.752 28.296,4.176 C28.008,4.032 27.864,4.176 27.504,4.032 L28.224,3.312 L27.936,3.024 L27.216,3.744 C27.072,3.6 27.504,3.384 27.072,3.384 C26.568,3.384 26.784,3.816 26.568,3.816 C26.496,2.376 27.36,2.52 27.792,1.656 L26.712,2.664 L26.424,2.376 C27.216,1.296 27,0.216 28.656,-1.08 C28.8,-0.72 28.656,-0.504 28.512,-0.288 C28.656,-0.504 29.016,-0.216 29.016,-0.216 L29.016,-2.736 C28.728,-2.448 28.368,-1.8 28.08,-1.512 L28.512,-1.8 L28.728,-1.584 L27.936,-0.72 C26.784,-0.504 27.216,-0.216 26.712,0.144 C26.496,-0.216 26.208,-0.288 26.064,-0.648 C26.424,-1.008 27,-1.368 27.288,-1.296 C26.856,-2.088 28.224,-2.304 28.872,-3.096 C28.944,-3.456 29.088,-3.672 29.088,-4.104 C29.088,-4.536 28.872,-4.32 28.872,-4.32 C28.944,-4.824 28.656,-5.328 28.656,-5.688 C28.656,-5.544 28.512,-5.256 28.368,-5.256 C28.152,-5.4 28.368,-5.544 28.224,-5.688 C28.584,-6.048 28.728,-6.264 28.944,-6.408 C28.728,-6.552 28.656,-6.84 28.656,-6.84 C28.728,-6.48 28.44,-6.264 28.152,-5.976 C27.936,-6.12 27.864,-6.192 27.864,-6.408 C28.224,-6.84 28.8,-7.128 28.944,-7.488 C28.728,-7.704 28.296,-7.776 28.152,-7.92 L27.792,-7.56 L27.288,-7.848 C27.432,-8.28 27.792,-8.208 28.224,-8.352 C28.224,-8.496 27.792,-8.856 27.648,-9 C27.432,-9 27,-8.856 26.856,-8.64 L23.184,-8.784 C23.184,-8.424 22.968,-8.136 22.536,-8.136 L19.44,-8.136 L19.44,-4.896 C19.584,-4.896 19.728,-4.752 19.728,-4.752 C19.224,-4.32 19.368,-4.32 19.224,-3.816 C19.44,-3.816 19.584,-3.672 19.584,-3.672 C19.44,-3.168 19.44,-2.592 19.224,-2.016 C19.512,-2.232 19.584,-2.232 19.728,-2.088 C19.44,-1.584 19.44,-0.576 19.44,-0.216 C19.584,-0.216 19.8,-0.072 19.8,-0.072 C19.7328,0.072 19.67584,0.2096 19.628608,0.342165333 L19.608,0.405 L19.584,0.432 L19.584,0.432 L19.594,0.447 L19.564992,0.537408 C19.3392,1.30464 19.4544,1.9152 19.8,2.664 L21.456,0.504 C21.456,1.08 21.312,1.296 21.096,1.512 C21.312,1.296 21.528,1.368 21.744,1.512 L20.664,2.808 C21.024,2.448 21.24,2.088 21.6,1.944 C21.816,2.16 21.528,2.232 21.744,2.376 C21.024,2.736 20.664,3.528 20.304,3.888 L21.096,3.24 C21.312,3.384 21.168,3.456 21.168,3.456 L19.872,4.824 L19.599,4.552 L19.6026667,4.72533333 C19.608,5.024 19.608,5.304 19.584,5.544 L22.32,2.664 L22.464,3.456 L22.032,3.96 L21.816,3.384 L19.872,6.12 C19.656,5.904 19.656,5.76 19.656,5.76 C19.566,6.21 19.5885,6.66 19.582875,7.05726562 L19.579,7.164 L19.588608,7.135488 C19.83744,6.52032 20.6208,6.3936 21.312,5.76 C21.456,6.12 21.384,6.336 21.528,6.552 L21.24,6.84 L21.2323951,6.85017284 L21.2323951,6.85017284 L21.1786667,6.92266667 C21.104,7.024 20.976,7.2 20.88,7.344 C21.384,7.128 21.744,6.552 22.248,6.48 L22.536,6.12 C22.32,7.2 21.96,7.992 21.744,8.712 L22.32,9.144 L22.32,11.952 L19.224,15.192 L19.224,24.048 L19.8,37.296 C19.584,37.296 19.584,37.512 19.368,37.656 C19.656,38.016 19.944,38.088 20.088,38.232 L19.944,38.664 C20.664,37.944 20.736,37.368 21.744,37.008 L19.584,39.528 C20.736,39.168 21.744,39.672 22.392,38.52 C22.68,38.88 22.896,38.88 22.824,39.168 C23.544,39.168 24.84,39.24 25.272,39.24 L25.776,39.24 C26.208,39.24 27.36,38.88 28.008,38.88 L28.296,38.52 C28.512,38.664 28.008,38.88 28.512,38.88 C28.944,38.88 28.944,38.664 29.088,38.664 C29.088,38.16 29.304,37.584 29.304,37.152 L29.304,31.896 C29.304,31.464 28.584,29.16 28.584,28.656 C28.584,28.224 28.944,27.792 28.944,27.792 C28.728,27.576 28.584,27.216 28.368,27.072 L28.368,26.568 C28.872,25.992 28.656,25.344 28.584,25.128 L29.088,24.768 L29.088,11.16 C28.152,10.8 27.936,11.736 27.072,12.384 C26.856,12.24 26.928,12.168 26.928,12.168 L28.986,9.492 L28.9688411,9.51219299 C28.8187456,9.6744142 28.6227692,9.78092308 28.512,9.504 L27.072,10.8 C27.216,10.08 29.016,9.144 29.016,9.072 L29.015,5.906 L28.9615781,6.0451875 C28.832625,6.38775 28.683,6.813 28.368,7.128 L28.944,7.488 C28.584,7.992 28.8,8.28 28.44,8.784 C28.296,8.784 28.152,8.64 28.152,8.64 L27.792,9 C27.576,8.784 27.648,8.712 27.648,8.712 C27.864,8.352 28.152,7.92 28.152,7.56 C27.792,7.92 27.288,8.496 27,8.784 C26.856,8.784 26.784,8.712 26.784,8.712 C27.216,8.136 27.288,7.632 27.648,6.84 L27.216,7.2 C27.072,6.984 27.144,6.912 27.144,6.912 L28.656,5.184 L28.944,5.472 L28.584,5.904 L29.088,5.472 C29.04,5.232 28.984,4.984 28.936,4.73866667 L28.905,4.572 L28.8289383,4.64167901 C28.5342222,4.94666667 28.328,5.416 28.008,5.544 L27.792,5.4 L27.48,5.774 Z" id="I" transform="translate(24.264000, 15.264000) rotate(90.000000) translate(-24.264000, -15.264000) "></path>
        </g>
    </g>
</svg>