<svg viewBox="0 0 349 349" version="1.1" xmlns="http://www.w3.org/2000/svg" xmlns:xlink="http://www.w3.org/1999/xlink"><path fill="black" d="M84.7814079,1.08148399 C84.7814079,1.08148399 84.7814079,1.08148399 84.7814079,1.08148399 C108.094197,2.12069319 183.488492,-1.80620793 223.241756,1.08148399 C233.305799,1.81253981 250.304017,2.59752921 274.236412,3.4364522 L274.236412,3.43645239 C312.594362,4.7810469 343.359929,35.5995876 344.638533,73.9597941 C345.165459,89.7684582 346.189728,107.8828 347.711337,128.302819 C350.229792,162.100501 348.400215,197.958802 347.711337,231.855578 C347.500842,242.213155 347.694796,262.434432 348.293199,292.519409 L348.293199,292.519409 C348.727869,314.372669 334.917376,333.975415 314.192915,340.921679 C298.026681,346.340152 276.557892,348.645821 249.786549,347.838685 C220.309815,346.949984 169.718183,349.377824 127.382617,348.948649 C112.196687,348.794703 88.5493588,348.170276 56.440631,347.075368 L56.440631,347.075368 C29.2107647,346.146829 7.73694316,323.588215 8.15039878,296.345659 C8.80453262,253.244834 7.461573,213.912403 4.1215199,178.348364 C1.20901587,147.33676 -0.159880473,115.130715 0.0148308661,81.7302289 L0.0147858688,81.7302286 C0.249227103,36.9108644 36.7725528,0.767643047 81.591917,1.00208428 C82.6554982,1.00764766 83.7188673,1.03411935 84.7814079,1.08148399 Z"></path></svg>