<svg width="233px" height="85px" viewBox="0 0 233 85" preserveAspectRatio="none" version="1.1" xmlns="http://www.w3.org/2000/svg" xmlns:xlink="http://www.w3.org/1999/xlink">
    <title>Group 13 Copy 3</title>
    <g id="-" stroke="none" stroke-width="1" fill="none" fill-rule="evenodd">
        <g id="Our-Process-Copy" transform="translate(-1111.000000, -4057.000000)" fill="#FFD419">
            <g id="Group-13-Copy-3" transform="translate(1111.000000, 4057.000000)">
                <path d="M196.869555,4.61950945 C217.182779,5.90527023 233,22.7553508 233,43.1092259 C233,64.1166626 216.808557,81.5738087 195.860481,83.151951 C181.635942,84.2235886 166.98379,84.8283479 151.904025,84.9662288 C149.823772,84.9852494 147.642401,84.9962355 145.359913,84.9991869 L143.043719,84.9994601 C120.066923,84.9759444 87.4228013,84.1842783 45.111353,82.6244619 C38.4382358,82.3784651 32.225446,80.3992169 26.8996517,77.1294055 C25.78037,78.9272352 23.8049688,80.0257378 20.9741182,80.4257358 C11.829757,81.7178302 1.16432227,80.4257358 0.0442579433,80.4257358 C-0.834885271,80.4257358 11.6038588,76.0502683 17.7463803,69.2255984 C12.2802444,62.7041308 9,54.3022371 9,45.1573559 C9,21.3919023 27.6384995,1.80259484 51.3745668,0.62111532 C57.8285444,0.299867907 64.9902385,0.103267469 72.8596491,0.0313140057 C102.873878,-0.24311922 144.210514,1.28627926 196.869555,4.61950945 Z" id="Combined-Shape" transform="translate(116.500000, 42.499730) scale(-1, 1) translate(-116.500000, -42.499730) "></path>
            </g>
        </g>
    </g>
</svg>