<svg width="316px" height="142px" viewBox="0 0 316 142" preserveAspectRatio="none" version="1.1" xmlns="http://www.w3.org/2000/svg" xmlns:xlink="http://www.w3.org/1999/xlink">
    <title>Group 13 Copy</title>
    <g id="-" stroke="none" stroke-width="1" fill="none" fill-rule="evenodd">
        <g id="Our-Process-Copy" transform="translate(-881.000000, -4170.000000)" fill="#FFD419">
            <g id="Group-13-Copy" transform="translate(881.000000, 4170.000000)">
                <path d="M269.918488,7.94839017 C295.932783,9.99341391 316,31.7000554 316,57.7946082 L316,72.0177657 C316,107.695432 288.479428,137.332671 252.899482,139.971477 C237.601773,141.106042 221.949004,141.763411 205.941176,141.943582 C202.989698,141.976802 199.888235,141.995351 196.636787,141.999231 L194.66792,141.999798 C165.527231,141.982298 124.771717,140.828752 72.4013776,138.539158 C58.7384063,137.941811 46.2458324,133.035165 36.2123666,125.165501 C34.6530525,127.354384 32.070154,128.705051 28.4648747,129.216913 C16.0546702,130.978859 1.58015166,129.216913 0.0600643517,129.216913 C-1.15932281,129.216913 16.5000624,122.984791 24.6221873,113.324587 C16.6862099,102.75281 12,89.6237564 12,75.4393475 L12,51.7574622 C12.0000003,25.9733541 31.6069182,4.41740745 57.2756718,1.98115568 C68.9343626,0.874615539 82.7313609,0.231667917 98.6666667,0.0523128096 C139.959592,-0.412447457 197.043532,2.21957833 269.918488,7.94839017 Z" id="Combined-Shape"></path>
            </g>
        </g>
    </g>
</svg>