<svg viewBox="0 0 235 90" preserveAspectRatio="none">
                                <defs>
                                    <path id="a" d="m679 1727.4c19.114 1.1994 34.003 17.052 34.003 36.203 0 19.758-15.23 36.176-34.932 37.659-13.646 1.0265-27.707 1.6053-42.182 1.7363-1.9832 0.01794-4.063 0.02829-6.2395 0.03104l-2.2087 2.1e-4c-21.911-0.0227-53.062-0.77208-93.453-2.2481-18.967-0.69318-33.986-16.27-33.986-35.25 0-9.1229 2.9198-17.592 7.894-24.497-5.9926-6.3796-17.689-10.456-16.851-10.456 0.70368 0 5.3144-0.52353 10.881-0.54732l0.78265 2e-5c2.7589 0.01216 5.713 0.15487 8.5187 0.5473 2.0571 0.28773 3.6458 0.95412 4.766 1.9991 6.6064-5.2117 14.832-8.4846 23.84-8.9396 6.257-0.31604 13.221-0.50877 20.893-0.5782 28.607-0.2589 68.032 1.1879 118.27 4.3404z"></path>
                                    <filter id="b" x="-8.8%" y="-8.1%" width="111.7%" height="128.8%">
                                        <feOffset dx="-13" dy="10" in="SourceAlpha" result="shadowOffsetOuter1"></feOffset>
                                        <feColorMatrix in="shadowOffsetOuter1" values="0 0 0 0 0   0 0 0 0 0   0 0 0 0 0  0 0 0 0.989131474 0"></feColorMatrix>
                                    </filter>
                                </defs>
                            
                                <g fill="none" fill-rule="evenodd">
                                    <g transform="translate(-478 -1723)">
                                        <use fill="#FFD419" fill-rule="evenodd" xlink:href="#a"></use>
                                    </g>
                                </g>
                            </svg>