<svg width="58" height="54" viewBox="0 0 58 54" version="1.1" xmlns="http://www.w3.org/2000/svg" xmlns:xlink="http://www.w3.org/1999/xlink">
    <title>Group 11</title>
    <g id="Page-1" stroke="none" stroke-width="1" fill="none" fill-rule="evenodd">
        <g id="Home---New-Font-1" transform="translate(-77.000000, -7268.000000)" fill="none">
            <g id="Group-11" transform="translate(72.000000, 7262.000000)" fill="none">
                <path d="M22.6594651,8.08296786 C26.7929307,7.09771901 37.8356604,3.73613045 43.0480254,6.17100722 C48.2603904,8.605884 52.7458982,8.08296786 57.9259596,16.1150499 C63.1060209,24.1471319 60.9290978,28.9366269 60.9290978,34.7419097 C60.9290978,40.5471926 56.0661028,52.7713335 51.2494482,56.3250231 C46.4327935,59.8787126 43.9919592,60.8437795 35.526813,61.5707556 C27.0616668,62.2977317 20.0933524,59.8938068 14.3865951,53.7810949 C8.6798378,47.6683829 4.76931871,36.4994987 8.75481456,27.9399385 C12.7403104,19.3803783 18.5259995,9.06821671 22.6594651,8.08296786 Z" id="Mask-Copy-3" fill="#000000" transform="translate(34.256557, 33.500000) scale(1, -1) rotate(75.000000) translate(-34.256557, -33.500000) "></path>
                <path d="M33.5679233,18.7334186 C36.2712065,18.8163951 38.544546,18.8109697 40.8053628,18.9734122 C43.856711,19.1926617 46.2482128,20.5400725 47.610611,23.3791457 C48.241559,24.693685 48.4660032,26.1135407 48.4762781,27.5515874 C48.50325,31.3685068 48.5176992,35.1860645 48.4643977,39.0023456 C48.4502696,40.0302968 48.2955027,41.089843 48.0010603,42.0743912 C47.0435605,45.278561 44.7679734,47.0692578 41.4934654,47.4822255 C39.568512,47.7250914 37.6050274,47.7276445 35.6585607,47.7317934 C32.8377574,47.7375379 30.0114955,47.7368996 27.1971141,47.5725423 C24.2725977,47.401483 21.9305443,46.1159854 20.523193,43.4460567 C19.799128,42.0721572 19.5403269,40.5712398 19.5284464,39.044153 C19.4982637,35.1985109 19.4793192,31.3515924 19.5425745,27.5069078 C19.5605558,26.409703 19.7400468,25.2735632 20.0804056,24.2309314 C21.0838217,21.1588858 23.3456018,19.4339318 26.5086904,19.0745797 C28.9868873,18.793417 31.5004045,18.8230971 33.5679233,18.7334186 Z M33.994335,26.0516241 C29.9665425,26.0557763 26.7353822,29.2682437 26.7328115,33.2715411 C26.7299236,37.2729236 29.9594785,40.492093 33.9856654,40.5013679 C38.0269438,40.5106032 41.2792963,37.2767533 41.2693652,33.2587755 C41.2590674,29.2557973 38.020843,26.0477978 33.994335,26.0516241 Z M34.0312928,28.9378959 C36.4285742,28.9513692 38.3743987,30.9073808 38.366077,33.2955086 C38.3577019,35.6778918 36.3922907,37.6192229 33.9924405,37.6150807 C31.5768568,37.6109253 29.6178675,35.6415098 29.6361698,33.235191 C29.654151,30.8550418 31.6285528,28.9245614 34.0312928,28.9378959 Z M41.6585073,23.8833875 C40.6483483,23.8763664 39.8494685,24.6470905 39.8343771,25.6434469 C39.8186436,26.6691642 40.602753,27.4730789 41.6257558,27.4801 C42.6352727,27.4868019 43.4347946,26.7151204 43.4505282,25.7190832 C43.4665828,24.6943233 42.6821523,23.8904086 41.6585073,23.8833875 Z" id="Combined-Shape" fill="#FFD419"></path>
            </g>
        </g>
    </g>
</svg>