<svg width="162" height="160" preserveAspectRatio="none" viewBox="0 0 162 160" version="1.1" xmlns="http://www.w3.org/2000/svg" xmlns:xlink="http://www.w3.org/1999/xlink">
  <title>Mask</title>
  <defs>
    <path d="M0.688806558,30.0501872 C3.40282314,10.8329368 13.0122837,1.22433685 29.5171882,1.2243873 C40.2920833,1.22442023 86.2041867,-0.0955912345 104.560052,1.23019533 C108.718605,1.53055456 115.38677,1.68323149 124.564546,1.68822612 L124.564546,1.68824251 C143.87251,1.69875008 159.910062,16.5875081 161.352997,35.8414827 C161.352997,35.8414827 161.352997,35.8414827 161.352997,35.8414827 C162.515881,51.3585509 160.310591,89.5279327 159.992506,105.090497 C159.937117,107.800411 159.792483,112.644715 159.558602,119.62341 L159.558583,119.623409 C158.792423,142.484607 139.680736,160.42021 116.816974,159.734809 C116.816974,159.734809 116.816974,159.734809 116.816974,159.734809 C103.206243,159.326792 79.1665629,158.84984 59.6173409,158.84984 C45.9199615,158.84984 14.1170544,158.954062 6.25665574,145.056818 C-1.60374295,131.159574 1.34166976,113.027215 1.34166976,80.5244601 C1.34166976,58.8559566 1.12404869,42.031199 0.688806558,30.0501872 L0.688806558,30.0501872 Z" class="path-1" id="path-1"></path>
  <path d="M0.688806558,30.0501872 C3.40282314,10.8329368 13.0122837,1.22433685 29.5171882,1.2243873 C40.2920833,1.22442023 86.2041867,-0.0955912345 104.560052,1.23019533 C108.718605,1.53055456 115.38677,1.68323149 124.564546,1.68822612 L124.564546,1.68824251 C143.87251,1.69875008 159.910062,16.5875081 161.352997,35.8414827 C161.352997,35.8414827 161.352997,35.8414827 161.352997,35.8414827 C162.515881,51.3585509 160.310591,89.5279327 159.992506,105.090497 C159.937117,107.800411 159.792483,112.644715 159.558602,119.62341 L159.558583,119.623409 C158.792423,142.484607 139.680736,160.42021 116.816974,159.734809 C116.816974,159.734809 116.816974,159.734809 116.816974,159.734809 C103.206243,159.326792 79.1665629,158.84984 59.6173409,158.84984 C45.9199615,158.84984 14.1170544,158.954062 6.25665574,145.056818 C-1.60374295,131.159574 1.34166976,113.027215 1.34166976,80.5244601 C1.34166976,58.8559566 1.12404869,42.031199 0.688806558,30.0501872 L0.688806558,30.0501872 Z" class="path-1" id="path-1"></path><path d="M0.688806558,30.0501872 C3.40282314,10.8329368 13.0122837,1.22433685 29.5171882,1.2243873 C40.2920833,1.22442023 86.2041867,-0.0955912345 104.560052,1.23019533 C108.718605,1.53055456 115.38677,1.68323149 124.564546,1.68822612 L124.564546,1.68824251 C143.87251,1.69875008 159.910062,16.5875081 161.352997,35.8414827 C161.352997,35.8414827 161.352997,35.8414827 161.352997,35.8414827 C162.515881,51.3585509 160.310591,89.5279327 159.992506,105.090497 C159.937117,107.800411 159.792483,112.644715 159.558602,119.62341 L159.558583,119.623409 C158.792423,142.484607 139.680736,160.42021 116.816974,159.734809 C116.816974,159.734809 116.816974,159.734809 116.816974,159.734809 C103.206243,159.326792 79.1665629,158.84984 59.6173409,158.84984 C45.9199615,158.84984 14.1170544,158.954062 6.25665574,145.056818 C-1.60374295,131.159574 1.34166976,113.027215 1.34166976,80.5244601 C1.34166976,58.8559566 1.12404869,42.031199 0.688806558,30.0501872 L0.688806558,30.0501872 Z" class="path-1" id="path-1"></path></defs>
  <g id="-" stroke="none" stroke-width="1" fill="none" fill-rule="evenodd">
    <mask id="mask-2" fill="#FFD419">
      <use xlink:href="#path-1" fill="#FFD419"></use>
    </mask>
    <use id="4736a77b-a22b-4fc4-a5f3-b7661294dbb9" fill="#FFD419" transform="translate(81.188807, 79.849981) scale(-1, 1) translate(-81.188807, -79.849981) " xlink:href="#path-1">
    </use>
  </g>
</svg>