<svg width="55" height="60" viewBox="0 0 55 62" version="1.1" xmlns="http://www.w3.org/2000/svg" xmlns:xlink="http://www.w3.org/1999/xlink">
    <title>noun_Chili_3057434</title>
    <g id="Page-1" stroke="none" stroke-width="1" fill="none" fill-rule="evenodd">
        <g id="Home---New-Font-1" transform="translate(-349.000000, -3230.000000)" fill="#000000" fill-rule="nonzero">
            <g id="noun_Chili_3057434" transform="translate(349.000000, 3230.000000)">
                <path d="M48.7604068,0.00408017203 C48.0499749,0.0360149629 47.1593513,0.228992342 46.7181522,1.07330259 C46.2769576,1.9177497 46.5274591,2.90079381 47.1758966,4.04935137 C47.2086681,4.10377512 47.2470253,4.15454398 47.2903305,4.20081352 C48.6887808,5.7933103 49.2258087,7.6689318 49.2533603,9.69852462 C49.2808533,11.7280718 48.7705837,13.8820735 48.0561765,15.8466562 C46.7357702,19.4777331 44.9942437,21.9196953 44.7022998,22.3423295 C39.5504819,19.9628682 35.4278657,19.8138696 32.2375045,21.5849275 C28.8544362,23.4630125 26.5190736,27.0733319 24.3677818,31.2259952 C20.0651993,39.5313219 16.4154531,50.1559812 8.25861862,55.0166845 C6.09077973,56.3084924 4.60031675,56.7756984 2.55439026,57.3512089 C2.29128251,57.4251151 1.8960467,57.5359745 1.49805167,57.6988419 C1.1000571,57.8617094 0.679700817,58.0382631 0.318473809,58.491874 C0.137858502,58.718611 -0.0173731289,59.0651491 0.00156997968,59.4452644 C0.0204995671,59.8252884 0.204603326,60.1598738 0.424105414,60.4075965 C0.863114097,60.903042 1.48187363,61.2349813 2.46636001,61.6283267 C2.50268679,61.6465751 2.50998821,61.6602615 2.54558484,61.6739478 C2.6601404,61.7200252 2.80797597,61.7633652 3.00333157,61.8076177 C3.39404276,61.8956665 3.98057918,61.9732224 4.89593831,61.9946644 C6.72665612,62.0357234 9.8762979,61.8536951 15.362493,60.9610264 C15.3772442,60.9583588 15.3919267,60.9553165 15.4065269,60.9519022 C20.269989,59.9407099 27.7424622,56.3397885 34.9311848,51.6227461 C42.1137058,46.9097641 48.9496576,41.1189828 52.316758,35.4949468 L52.316758,35.4858226 C52.321265,35.4766984 53.700655,33.346146 53.8748568,30.7989815 C53.9621132,29.5231866 53.7259891,28.0892232 52.7921114,26.8694967 C52.0422068,25.890011 50.5339874,25.2775017 48.8836564,24.7577402 C49.1053129,24.433374 49.3793457,24.059007 49.7639408,23.510276 C50.7067289,22.165137 51.9891364,20.2412484 53.0561972,17.9234669 C55.1903144,13.2879039 56.4164018,6.92393875 52.1142925,0.806647087 C52.0042813,0.648093745 51.8469226,0.529444229 51.6653458,0.468138304 C51.6653458,0.468138304 50.1812751,-0.0553185389 48.7604158,0.00481011011 L48.7604068,0.00408017203 Z" id="Path"></path>
            </g>
        </g>
    </g>
</svg>