<svg class="svg-58b752b9-2157-446f-a87c-bf0bab73806c" width="224" height="61" viewBox="0 0 224 61" preserveAspectRatio="none" version="1.1" xmlns="http://www.w3.org/2000/svg" xmlns:xlink="http://www.w3.org/1999/xlink">
    <title>Rectangle</title>
    <g id="-" stroke="#FFD419" stroke-width="1" fill="#FFD419" fill-rule="evenodd">
        <g id="Press" transform="translate(-608.000000, -1474.000000)" fill="#FFD419" stroke="#FFD419" stroke-width="4px">
            <g id="Group-6" transform="translate(605.000000, 1474.000000)" stroke="#FFD419" fill="#FFD419" stroke-width="4px">
                <path d="M173.532793,2.00763741 C182.901859,1.96651909 190.924097,2.09128751 197.599488,2.38271509 C204.071971,2.6652839 209.987793,5.22689776 214.51986,9.3204852 C219.051928,13.4140727 222.200242,19.0396339 223.137708,25.4500972 L223.137708,25.4500972 L224.210906,32.7887065 C225.067475,38.6459886 223.46882,44.2959555 220.191703,48.6957441 C216.914585,53.0955327 211.959004,56.2451431 206.101722,57.1017121 C205.271909,57.223064 204.43569,57.2956158 203.597436,57.3190189 C164.390798,58.4124675 136.257846,58.9726514 119.201283,58.9990217 L119.201283,58.9990217 L117.040482,58.9994377 C116.342365,58.9985693 115.665131,58.9966951 115.008777,58.9938146 C98.6514634,58.9220267 71.0630323,58.346258 32.2434792,57.2669548 C25.5972178,57.0821683 19.5130059,54.4915331 14.8787305,50.2984142 C10.244455,46.1052953 7.06011589,40.3096927 6.21359993,33.7149715 L6.21359993,33.7149715 L5.67647873,29.5305678 C4.85100623,23.0997841 6.71027124,16.9432133 10.3836003,12.1879703 C14.0569294,7.43272732 19.5443225,4.07881212 25.9751061,3.25333962 C26.9732089,3.1252205 27.9785158,3.0614007 28.9847704,3.06225483 C30.9789764,3.06398444 32.9068893,3.06528586 34.7686322,3.06615915 L34.7686322,3.06615915 L36.3480432,3.06680275 L37.1260853,3.06704598 L43.0540526,3.06710364 L43.7586797,3.06687485 L45.1432712,3.06626012 C53.5851413,3.06182073 60.174093,3.04540481 64.9101261,3.01702916 C74.1173221,2.9618648 83.9367199,2.88040885 93.8387113,2.78716246 L93.8387113,2.78716246 L96.3154896,2.76361486 L101.271294,2.71525469 C111.072864,2.61809698 120.825478,2.51295501 130.016354,2.41386887 C147.917368,2.22087938 163.686662,2.05084944 173.532793,2.00763741 Z" id="Rectangle" stroke="#FFD419" fill="#FFD419" stroke-width="4px"></path>
            </g>
        </g>
    </g>
</svg>