<svg width="102" height="79" viewBox="0 0 102 79" version="1.1" xmlns="http://www.w3.org/2000/svg" xmlns:xlink="http://www.w3.org/1999/xlink">
    <g id="main" stroke="none" stroke-width="1" fill="none" fill-rule="evenodd">
        <path d="M53.6355391,7 C53.6355391,7 68.6568925,21.4847139 83.1450711,18.7426271 C97.6326333,16.0005403 98,26.2878423 98,26.2878423 C98,26.2878423 93.1650597,27.4597587 92.2016466,38.4157569 C91.23885,49.3717552 83.6166072,67.05485 64.4173821,69.8111381 C45.218157,72.5674262 41.4520319,79 41.4520319,79 C41.4520319,79 1.92251134,76.1412155 0,30.1499798 C0,30.1499798 29.9144983,27.3004571 53.6355391,7" id="Fill-1" fill="#DC1A21" transform="translate(49.000000, 43.000000) scale(-1, 1) translate(-49.000000, -43.000000) "></path>
        <path d="M30.9634326,47.3984608 C32.6025112,49.6701794 35.2436315,51.4934549 34.9819299,52.2451873 C34.9433633,52.3555279 34.4240922,52.927883 34.247788,52.9898389 C34.0026149,53.0765773 34.0549552,52.5821097 33.606619,52.4888807 C31.5446857,52.0604995 27.7445026,49.8554573 25.9380727,47.0314455 C23.3603117,43.0025377 23.6681555,39.5105816 25.0427777,39.0255549 C26.4173999,38.5405283 29.3002499,45.0925189 30.9634326,47.3984608" id="Fill-3" fill="#373837" transform="translate(29.500000, 46.000000) scale(-1, 1) translate(-29.500000, -46.000000) "></path>
        <path d="M39.1222358,38.1847637 C11.4405502,41.3844716 43.7704265,51.274421 46.8555143,79 C46.8555143,79 50.6626572,72.470214 70.0671867,69.6722716 C72.1816431,69.3676569 74.1571709,68.8825298 76,68.2463489 C71.470802,57.2933819 59.8518828,35.7885867 39.1222358,38.1847637" id="Fill-5" fill="#C9171D" transform="translate(52.000000, 58.500000) scale(-1, 1) translate(-52.000000, -58.500000) "></path>
        <path d="M73.3435398,68.4903776 C74.9195116,70.9392513 77.5573853,72.8925548 76.895528,73.5324198 C76.845204,73.5809124 76.4018424,74.0350865 76.3164826,73.99783 C76.1355707,73.9185861 76.239404,73.7269814 75.9259932,73.6719838 C74.0875717,73.3490944 70.3916184,71.0250003 68.7016211,68.0580842 C66.3828913,63.9870756 66.7243306,60.4920639 68.0034541,60.0236969 C69.2819405,59.5553298 71.8420985,66.1580043 73.3435398,68.4903776" id="Fill-7" fill="#373837" transform="translate(72.000000, 67.000000) scale(-1, 1) translate(-72.000000, -67.000000) "></path>
        <path d="M94.062432,15.2762602 C92.6954502,13.793101 91.7226761,12.6905961 91.418573,11.945535 C91.2644467,11.5672017 90.9235905,11.5967953 91.0154735,11.3136256 C91.1150628,11.004344 91.7416455,10.9857755 91.9366745,11.0055045 C93.3196617,11.1459288 97.1823041,13.4994866 99.6074222,15.9052682 C102.850003,19.1205206 102.135094,20.907739 101.267837,21.8286207 C100.117225,23.0506603 96.028728,17.4098972 94.062432,15.2762602" id="Fill-9" fill="#373837" transform="translate(96.500000, 16.500000) scale(-1, 1) translate(-96.500000, -16.500000) "></path>
        <path d="M90.8788294,16.8052471 C106.162317,36.1701085 94.6666269,56.9794236 76.9387211,65.5052986 C59.2108154,74.0305532 35.7644298,71.7993439 29.6132001,46.7944123 C24.0430916,24.1509887 33.5920256,10.5161656 47.601374,3.77910486 C63.5679879,-3.89982897 77.5903187,-0.0311999767 90.8788294,16.8052471" id="Fill-11" fill="#231F20" transform="translate(63.000000, 35.000000) scale(-1, 1) translate(-63.000000, -35.000000) "></path>
        <path d="M63.984987,6.12026683 C64.1230588,7.27959591 63.2911469,8.01069861 62.2149987,7.9998816 C61.1382703,7.98842829 60.1532031,7.03907649 60.0151313,5.8797474 C59.8764793,4.71978203 60.7083912,3.98867933 61.7851195,4.00013264 C62.8618479,4.01158594 63.8469151,4.96093775 63.984987,6.12026683" id="Fill-13" fill="#FEFEFE" transform="translate(62.000000, 6.000000) scale(-1, 1) translate(-62.000000, -6.000000) "></path>
        <path d="M89.838582,11.859053 C89.4047539,12.9606606 88.2292427,13.9174378 87.2143824,13.9949797 C86.1988143,14.0725216 85.7274775,13.2426311 86.1613055,12.1410235 C86.5958413,11.039416 87.7706448,10.0826388 88.7862128,10.0050969 C89.8017809,9.92691415 90.27241,10.7574455 89.838582,11.859053" id="Fill-15" fill="#FEFEFE" transform="translate(88.000000, 12.000000) scale(-1, 1) translate(-88.000000, -12.000000) "></path>
        <path d="M71.9983856,10.1368876 C62.1194778,13.0135573 54.9122206,15.8787687 56.1353859,20.6677011 C57.3579551,25.4566336 66.5960721,21.7486007 74.3845117,19.480494 C82.1723552,17.2123874 95.1419609,14.5642471 93.9193917,9.77531465 C92.6962263,4.98574561 81.8772934,7.26021799 71.9983856,10.1368876" id="Fill-17" fill="#FFCB1D" transform="translate(75.000000, 15.000000) scale(-1, 1) translate(-75.000000, -15.000000) "></path>
        <path d="M91,11 C91,11 85.2941621,11.2797631 72.6237204,14.4435388 C59.9532786,17.6067572 58,19 58,19 C58,19 63.2718436,17.7176594 72.8842387,15.317938 C82.4960251,12.9176594 91,11 91,11" id="Fill-19" fill="#231F20" transform="translate(74.500000, 15.000000) scale(-1, 1) translate(-74.500000, -15.000000) "></path>
        <path d="M47.6666189,16.7531619 C49.346367,17.8988833 50.7830018,19.5367622 51.7499439,20.2829364 C52.1767702,20.6123644 52.2674019,21.1137829 52.4915316,20.976852 C52.5723653,20.9279008 52.8834524,20.4952785 52.9342797,20.3649627 C53.4492881,19.0498967 50.8773077,14.0714329 47.3285872,11.9222129 C43.1693275,9.40321342 39.5434475,9.6618607 39.0278267,10.9762651 C38.5128183,12.291331 45.287537,15.1304975 47.6666189,16.7531619" id="Fill-21" fill="#373837" transform="translate(46.000000, 15.500000) scale(-1, 1) translate(-46.000000, -15.500000) "></path>
        <path d="M8.21906083,18.4619648 C5.46281432,18.9830366 2.68694168,18.8768583 0,18.3662202 C7.47633396,28.550136 15.1182635,44.8985338 5.41558892,62 C13.1237567,55.1775804 16.6024906,45.1593765 17.2311405,38.0171944 C18.1891416,27.126855 23,25.9619619 23,25.9619619 C23,25.9619619 22.6344631,15.7363112 8.21906083,18.4619648" id="Fill-23" fill="#C9171D" transform="translate(11.500000, 40.000000) scale(-1, 1) translate(-11.500000, -40.000000) "></path>
        <path d="M5,45.5462585 C3.63803965,46.1557823 3.11352844,46.6612245 2.45363756,48 C1.84340857,46.637415 1.33862607,46.1136054 -0.000204089963,45.4530612 C1.36175626,44.8435374 1.88626747,44.3380952 2.54615835,43 C3.15638734,44.3619048 3.66116984,44.8863946 5,45.5462585" id="Fill-25" fill="#FFF100" transform="translate(2.499898, 45.500000) scale(-1, 1) translate(-2.499898, -45.500000) "></path>
        <path d="M27,9.11154599 C23.7309555,10.5751468 22.4721855,11.7874755 20.888155,15 C19.4244826,11.7305284 18.2120945,10.472407 15,8.88845401 C18.2690445,7.42485323 19.5272274,6.21252446 21.1112579,3 C22.5749303,6.26947162 23.7873184,7.52759295 27,9.11154599" id="Fill-28" fill="#FFF100" transform="translate(21.000000, 9.000000) scale(-1, 1) translate(-21.000000, -9.000000) "></path>
        <path d="M18,17.5650988 C16.0927503,18.4186162 15.3590146,19.1263123 14.4349012,21 C13.5813838,19.0933289 12.8736877,18.3590146 11,17.4349012 C12.9066711,16.5813838 13.6409854,15.8742663 14.5650988,14 C15.4186162,15.9072497 16.1257337,16.6409854 18,17.5650988" id="Fill-30" fill="#FFF100" transform="translate(14.500000, 17.500000) scale(-1, 1) translate(-14.500000, -17.500000) "></path>
    </g>
</svg>