<svg width="38" height="25" viewBox="0 0 38 25" version="1.1" xmlns="http://www.w3.org/2000/svg" xmlns:xlink="http://www.w3.org/1999/xlink">
    <g id="-" stroke="none" stroke-width="1" fill="#FFD419" fill-rule="evenodd">
        <path d="M22.5264582,19.1226735 C20.2122751,21.3296185 19.4676151,22.436245 19.5469174,23.5512824 C19.6268204,24.6654186 20.4895325,25.2295458 20.8761308,24.9123369 C21.261828,24.5948276 25.804584,20.1938544 28.7591928,17.9346421 C31.7141019,15.6763309 34.8669662,13.8637944 35.4704441,13.5567986 C36.0745228,13.2510044 37.015636,12.5913541 37.0459751,11.6337196 C37.076915,10.6760852 36.6332431,9.44209444 35.7206667,8.84252154 C34.8086911,8.24204748 31.2980656,6.77225279 29.0478649,5.33189605 C26.798265,3.89123892 24.5429577,1.54161005 24.0542277,0.877754281 C23.565798,0.214499289 22.3621464,-0.299162864 21.917273,0.200080703 C21.4720991,0.698423108 21.6880775,2.44187056 23.0536378,3.75516351 C24.418297,5.06815606 28.2208989,8.78965339 32.2286652,10.4018316 C32.2286652,10.4018316 23.7502358,11.0578773 18.5664535,11.4399699 C13.3829715,11.8211613 8.04088512,12.011006 5.73841704,11.9641456 C3.43594896,11.9169848 2.1136444,11.7670916 1.68889687,11.5273826 C1.26384894,11.2876735 0.235623473,11.6571498 0.0334628711,12.3369261 C-0.168096957,13.0161016 0.556737416,14.6838515 1.78051497,14.7619522 C3.00399213,14.8391517 10.1177624,14.9064384 15.6893446,14.5102277 C21.2606265,14.1143173 29.0736982,13.6433102 29.0736982,13.6433102 C29.0736982,13.6433102 24.840341,16.916029 22.5264582,19.1226735 Z" id="Fill-3" fill="#FFD419"></path>
    </g>
</svg>