<svg width="100" height="90" viewBox="0 0 87 76" version="1.1" xmlns="http://www.w3.org/2000/svg" xmlns:xlink="http://www.w3.org/1999/xlink">
    <title>Group 20</title>
    <defs>
        <polygon id="path-1" points="0 0 16.8387097 0 16.8387097 14.0322581 0 14.0322581"></polygon>
    <path d="M0.688806558,30.0501872 C3.40282314,10.8329368 13.0122837,1.22433685 29.5171882,1.2243873 C40.2920833,1.22442023 86.2041867,-0.0955912345 104.560052,1.23019533 C108.718605,1.53055456 115.38677,1.68323149 124.564546,1.68822612 L124.564546,1.68824251 C143.87251,1.69875008 159.910062,16.5875081 161.352997,35.8414827 C161.352997,35.8414827 161.352997,35.8414827 161.352997,35.8414827 C162.515881,51.3585509 160.310591,89.5279327 159.992506,105.090497 C159.937117,107.800411 159.792483,112.644715 159.558602,119.62341 L159.558583,119.623409 C158.792423,142.484607 139.680736,160.42021 116.816974,159.734809 C116.816974,159.734809 116.816974,159.734809 116.816974,159.734809 C103.206243,159.326792 79.1665629,158.84984 59.6173409,158.84984 C45.9199615,158.84984 14.1170544,158.954062 6.25665574,145.056818 C-1.60374295,131.159574 1.34166976,113.027215 1.34166976,80.5244601 C1.34166976,58.8559566 1.12404869,42.031199 0.688806558,30.0501872 L0.688806558,30.0501872 Z" class="path-1" id="path-1"></path></defs>
    <g id="-" stroke="none" stroke-width="1" fill="none" fill-rule="evenodd">
        <g id="Our-Story-Copy" transform="translate(-1243.000000, -2086.000000)" fill="none">
            <g id="Group-20" transform="translate(1243.000000, 2086.000000)" fill="none">
                <g id="Group-3" transform="translate(70.161290, 21.516129)" fill="none">
                    <mask id="mask-2" fill="#FFFFFF">
                        <use xlink:href="#path-1" fill="#FFFFFF"></use>
                    </mask>
                    <g id="Clip-2" fill="none"></g>
                    <path d="M10.7743345,3.46682365 C14.044164,1.61114109 16.0855087,-0.663278664 16.7416814,0.181633317 C16.858645,0.331872947 16.8704149,0.543100942 16.7740487,0.708959544 C16.2355751,1.63791647 12.8745287,6.44037831 9.09123663,9.28823745 C4.1258037,13.0256342 -0.849192287,16.9378147 0.122561328,10.914098 C0.55069199,8.25441029 7.61779038,5.25705528 10.7743345,3.46682365" id="Fill-1" fill="#373837" mask="url(#mask-2)"></path>
                </g>
                <path d="M1.88708674,44.1929149 C1.22549821,69.5544779 21.0252337,75.0515762 43.6429788,73.7188583 C66.2607239,72.3868663 83.4026616,61.9007866 78.7500849,35.7596272 C74.9836793,14.6001905 61.1897372,-1.25450654 38.5719921,0.0782113265 C10.2374069,1.74701219 2.48859589,21.1302177 1.88708674,44.1929149" id="Fill-4" fill="#231F20"></path>
                <path d="M26.1948202,24.8515887 C26.3168719,29.283813 36.2189525,30.1864061 49.6807555,29.881822 C63.1418363,29.5765814 74.0419969,28.8840464 73.9018901,23.7711027 C73.7805606,19.3303448 62.8363458,18.4599169 49.3759872,18.764501 C35.9141842,19.0690851 26.0648242,20.1114981 26.1948202,24.8515887" id="Fill-6" fill="#FFCC1E"></path>
                <path d="M72.0322581,24.3225806 C72.0322581,24.3225806 50.3019856,27.658261 29,25.4217596 C29,25.4217596 50.8900593,26.2023593 72.0322581,24.3225806" id="Fill-8" fill="#211C1D"></path>
                <path d="M64.4374591,69.7821943 C63.6504958,68.8964498 63.2803748,67.2323455 63.992876,66.3285833 C64.9535844,65.1098738 66.6632952,63.809004 69.1570491,65.0522175 C69.1570491,65.0522175 71.4485871,69.8730029 77.2894903,70.6823529 C83.1311235,71.4917029 76.2857105,73.8844384 70.4484574,72.5922171 C66.7282671,71.7691737 65.7434679,71.2502673 64.4374591,69.7821943" id="Fill-10" fill="#373837"></path>
                <path d="M23.0702014,71.5291729 C22.2304215,70.7690652 22.2588379,69.5270369 23.075436,68.7466235 C24.1769461,67.6927609 26.050934,66.6300991 28.4685728,68.0156205 C28.4685728,68.0156205 32.162707,72.6175551 38.038175,73.8968104 C43.9128953,75.1767425 36.7325155,76.6915432 30.8720034,75.0697995 C26.4525028,73.8480769 24.5044827,72.8267032 23.0702014,71.5291729" id="Fill-12" fill="#373837"></path>
                <path d="M70.1554844,18.4037751 C70.0660892,19.6924177 68.9490828,20.6643232 67.6610973,20.5749426 C66.3722438,20.485562 65.4001792,19.3687385 65.4895744,18.0800959 C65.5789697,16.7914533 66.695976,15.8195477 67.9848295,15.9089283 C69.2728151,15.9983089 70.2457475,17.1151325 70.1554844,18.4037751" id="Fill-14" fill="#FEFEFE"></path>
                <path d="M32.736221,18.403886 C32.6467255,19.6923098 31.5295487,20.6637464 30.2409652,20.5750203 C28.9531401,20.4855359 27.9800662,19.3684976 28.0703202,18.0800738 C28.1598156,16.7916501 29.2762341,15.8194552 30.5648175,15.9089396 C31.853401,15.998424 32.8257165,17.1154623 32.736221,18.403886" id="Fill-16" fill="#FEFEFE"></path>
                <path d="M4.99012644,41.4353078 C3.31137643,44.7794785 -1.0363297,50.218678 0.226880663,51.3540626 C0.368661886,51.4816749 0.595662675,51.4772996 0.762331028,51.3803143 C1.69823793,50.8363214 7.12438635,45.733289 10.0867089,42.1499365 C14.0490416,37.3568196 15.6651967,32.7780914 11.9102568,31.9292875 C8.24129056,31.0994431 8.47206212,34.4968463 4.99012644,41.4353078" id="Fill-18" fill="#373837"></path>
            </g>
        </g>
    </g>
</svg>