<svg width="59" height="54" viewBox="0 0 59 54" version="1.1" xmlns="http://www.w3.org/2000/svg" xmlns:xlink="http://www.w3.org/1999/xlink">
    <title>Group 14</title>
    <g id="Page-1" stroke="none" stroke-width="1" fill="none" fill-rule="evenodd">
        <g id="Home---New-Font-1" transform="translate(-149.000000, -7268.000000)" fill="none">
            <g id="Group-14" transform="translate(144.253442, 7262.000000)" fill="none">
                <path d="M22.6594651,8.08296786 C26.7929307,7.09771901 37.8356604,3.73613045 43.0480254,6.17100722 C48.2603904,8.605884 52.7458982,8.08296786 57.9259596,16.1150499 C63.1060209,24.1471319 60.9290978,28.9366269 60.9290978,34.7419097 C60.9290978,40.5471926 56.0661028,52.7713335 51.2494482,56.3250231 C46.4327935,59.8787126 43.9919592,60.8437795 35.526813,61.5707556 C27.0616668,62.2977317 20.0933524,59.8938068 14.3865951,53.7810949 C8.6798378,47.6683829 4.76931871,36.4994987 8.75481456,27.9399385 C12.7403104,19.3803783 18.5259995,9.06821671 22.6594651,8.08296786 Z" id="Mask-Copy-2" fill="#000000" transform="translate(34.256557, 33.500000) scale(1, -1) rotate(75.000000) translate(-34.256557, -33.500000) "></path>
                <path d="M41.2470063,16.9481118 L41.2470063,22.0340296 C41.2140086,22.0331338 41.1810108,22.0308943 41.1480131,22.0308943 C40.1791627,22.0308943 39.2103122,22.0313422 38.2414618,22.0308943 C37.9463153,22.0308943 37.6520854,22.0438835 37.3587721,22.0837467 C37.1126639,22.1173393 36.8720554,22.1688479 36.6387797,22.2539491 C36.2212665,22.4062355 35.8784566,22.6503416 35.6456392,23.029266 C35.5342718,23.210666 35.4568188,23.4059509 35.4018225,23.6101939 C35.3179533,23.9196936 35.2881636,24.2363597 35.2757895,24.5552653 C35.2721231,24.6546994 35.273498,24.7536856 35.273498,24.8531196 C35.2730397,26.0194543 35.2730397,27.1857889 35.273498,28.3521236 C35.273498,28.3834767 35.2767061,28.4152777 35.2789976,28.4542451 L41.0375623,28.4542451 C40.7877877,30.3502107 40.5389297,32.2363226 40.2891551,34.128705 L39.8299365,34.128705 L39.3762175,34.128705 L38.915624,34.128705 L38.461905,34.128705 L38.0081861,34.128705 L37.5544671,34.128705 L37.1007481,34.128705 L36.6470291,34.128705 L36.1864356,34.128705 C36.0351959,34.128705 35.8839563,34.1278092 35.7327166,34.1291529 C35.5823935,34.1300487 35.4320705,34.1237781 35.2725814,34.1336319 L35.2725814,48.7334186 L29.2775328,48.7334186 C29.2761579,48.6957949 29.2734081,48.6622023 29.2734081,48.6281618 C29.2734081,43.8400983 29.2734081,39.0524826 29.2734081,34.2644191 C29.2734081,34.2366492 29.2738664,34.2088793 29.2724915,34.1811095 C29.2720332,34.1658808 29.2669919,34.1511001 29.2624089,34.1282571 L24.251793,34.1282571 C24.2504181,34.0870502 24.24721,34.0530097 24.24721,34.0189692 C24.24721,32.5870292 24.24721,31.1550891 24.24721,29.7231491 C24.24721,29.3303398 24.2467517,28.9379783 24.24721,28.545169 C24.24721,28.5165033 24.251793,28.4873897 24.2545428,28.4537972 L25.2609741,28.4537972 L26.2605307,28.4537972 L27.2669619,28.4537972 C27.6001475,28.4537972 27.9333331,28.4537972 28.2665186,28.4537972 C28.5987876,28.4537972 28.9310565,28.4537972 29.2734081,28.4533493 L29.2734081,28.3489883 C29.2734081,26.9882645 29.2729498,25.6279887 29.2738664,24.2677128 C29.2738664,23.8887884 29.2912819,23.5103119 29.3306959,23.133627 C29.3646102,22.807555 29.4150234,22.4832745 29.4837687,22.1625773 C29.6185095,21.5390988 29.8187875,20.9375676 30.1070595,20.364702 C30.6034005,19.3784236 31.308269,18.5681703 32.2418302,17.9505146 C32.8330398,17.5594969 33.4760375,17.2759755 34.1593658,17.0775552 C34.5415897,16.9664758 34.9311464,16.8849577 35.3257444,16.829418 C35.5099818,16.8038876 35.6955941,16.7850758 35.8812064,16.7707429 C36.0998165,16.7532748 36.3193432,16.7344629 36.5384115,16.7334186 C37.0251282,16.7322234 37.511845,16.7402857 37.9981034,16.7461084 C38.1539261,16.7483479 38.3097488,16.7541706 38.4655715,16.7608891 C38.7226789,16.7720866 38.9797863,16.7859716 39.2368937,16.7989607 C39.4325887,16.8083666 39.6278253,16.8186684 39.8235203,16.829418 C39.8991401,16.8334491 39.9743017,16.8388239 40.0494632,16.8450945 C40.2566157,16.8616669 40.4637682,16.8777913 40.6700041,16.8966032 C40.8391175,16.9118318 41.0077727,16.9306437 41.1768861,16.9476639 C41.1998012,16.9499034 41.2236329,16.9481118 41.2470063,16.9481118" id="Fill-1" fill="#FFD419"></path>
            </g>
        </g>
    </g>
</svg>