<svg width="58" height="54" viewBox="0 0 58 54" version="1.1" xmlns="http://www.w3.org/2000/svg" xmlns:xlink="http://www.w3.org/1999/xlink">
    <title>Group 30</title>
    <g id="Page-1" stroke="none" stroke-width="1" fill="none" fill-rule="evenodd">
        <g id="Home---New-Font-1" transform="translate(-222.000000, -7268.000000)" fill="none">
            <g id="Group-30" transform="translate(216.506883, 7262.000000)" fill="none">
                <path d="M22.6594651,8.08296786 C26.7929307,7.09771901 37.8356604,3.73613045 43.0480254,6.17100722 C48.2603904,8.605884 52.7458982,8.08296786 57.9259596,16.1150499 C63.1060209,24.1471319 60.9290978,28.9366269 60.9290978,34.7419097 C60.9290978,40.5471926 56.0661028,52.7713335 51.2494482,56.3250231 C46.4327935,59.8787126 43.9919592,60.8437795 35.526813,61.5707556 C27.0616668,62.2977317 20.0933524,59.8938068 14.3865951,53.7810949 C8.6798378,47.6683829 4.76931871,36.4994987 8.75481456,27.9399385 C12.7403104,19.3803783 18.5259995,9.06821671 22.6594651,8.08296786 Z" id="Mask-Copy" fill="#000000" transform="translate(34.256557, 33.500000) scale(1, -1) rotate(75.000000) translate(-34.256557, -33.500000) "></path>
                <path d="M40.355527,28.5011911 C40.3327077,28.6187068 40.3010649,28.7048344 40.301217,28.7906587 C40.3065415,31.1873721 40.3168863,33.5839338 40.3219065,35.9806471 C40.3246448,37.1961383 40.3292087,38.4117811 40.3143001,39.6271207 C40.279919,42.4312723 39.287736,44.8408744 37.2899826,46.8269652 C35.8782287,48.2304815 34.1613048,49.0583984 32.229423,49.4749346 C31.4366806,49.6459768 30.6366361,49.7389279 29.8233563,49.7334186 C28.5409118,49.7242195 27.3336188,49.4185271 26.1762241,48.8803811 C24.7865289,48.2344239 23.5352707,47.4005933 22.5062726,46.2551566 C21.3122148,44.9260922 20.5492896,43.372914 20.2121725,41.6338336 C19.5199872,38.0631765 20.4750508,34.9571234 23.0277696,32.3675327 C24.5140665,30.8596929 26.3463039,29.9565659 28.4318356,29.5821837 C29.3762502,29.4126579 30.3313139,29.4290342 31.284552,29.5222886 C31.487948,29.5421526 31.5606655,29.6247926 31.5635559,29.8439025 C31.5685762,30.2349643 31.5653815,30.6260262 31.5653815,31.0169364 C31.5653815,32.2920194 31.5658379,33.5671025 31.5650772,34.8420339 C31.564773,35.1719876 31.53526,35.1898803 31.2055972,35.1130023 C28.8386276,34.5598446 26.3076632,35.9666968 25.6941284,38.4916918 C25.0888085,40.9825693 26.6300238,43.4547959 29.1375604,44.0341861 C31.7438284,44.6361697 34.3090217,42.8738894 34.6856922,40.2780817 C34.7222031,40.0272805 34.7371117,39.7713238 34.7380245,39.5176416 C34.7427405,38.0216291 34.7390894,36.5254649 34.7406106,35.0294524 C34.7460873,29.9552012 34.7532373,24.88095 34.7578012,19.8065471 C34.7582576,19.2627907 34.7427405,18.7191859 34.7418277,18.1754295 C34.741067,17.7880069 34.8003972,17.7334186 35.1831529,17.7334186 C36.7012447,17.7340255 38.2190322,17.7349353 39.737124,17.7361483 C39.8308353,17.7361483 39.9246986,17.737513 40.0184099,17.7425169 C40.2653147,17.7555574 40.3114097,17.8022604 40.3228193,18.0488159 C40.5214993,22.3423081 43.7902876,24.6660858 46.4429549,25.2151494 C46.833317,25.2959699 47.2332632,25.3340298 47.6300147,25.3813393 C47.9651541,25.4213705 47.9923851,25.4425991 47.9925373,25.7940847 C47.9931458,27.1457425 47.9928415,28.4972486 47.9928415,29.8487547 C47.9928415,30.0783273 47.9948192,30.3078999 47.992233,30.5373208 C47.9887341,30.8560537 47.9365539,30.916252 47.6199742,30.9051828 C45.8749065,30.843923 44.1967754,30.4804584 42.6014022,29.7671761 C41.8623612,29.4367675 41.1453789,29.06375 40.4997449,28.5685162 C40.4741873,28.5488039 40.4402626,28.5400092 40.355527,28.5011911" id="Fill-1" fill="#FFD419"></path>
            </g>
        </g>
    </g>
</svg>