<svg width="72" height="60" viewBox="0 0 72 66" version="1.1" xmlns="http://www.w3.org/2000/svg" xmlns:xlink="http://www.w3.org/1999/xlink">
    <title>noun_Potato Chips_3846037</title>
    <g id="Page-1" stroke="none" stroke-width="1" fill="none" fill-rule="evenodd">
        <g id="Home---New-Font-1" transform="translate(-797.000000, -3233.000000)" fill="#000000" fill-rule="nonzero">
            <g id="noun_Potato-Chips_3846037" transform="translate(797.000000, 3233.000000)">
                <path d="M53.4305645,19.5435794 C53.0932032,18.445348 53.2496243,17.2539411 53.8589003,16.2810896 C54.5752734,15.3197744 55.6974768,14.7495764 56.8929457,14.7394735 C59.0122902,14.2472 61.2239594,15.0295763 62.5683954,16.7471596 C62.7144968,16.9708879 62.7412125,17.2526356 62.6397847,17.5000418 L61.3190825,21.587117 C61.2031987,21.9456007 60.873313,22.1905009 60.4981056,22.1965931 L56.5359992,22.1965931 C56.3133011,22.2087654 56.094945,22.1313598 55.9291901,21.9814839 L53.6804271,19.9737978 C53.5567334,19.8582686 53.4698032,19.7085905 53.4305645,19.5435794 L53.4305645,19.5435794 Z M66.8874482,38.1505267 C68.1937653,40.4880126 68.3130752,43.3107759 67.2087001,45.7510524 C65.3525782,49.4437606 62.3185328,49.2645029 59.3915713,49.0852452 C56.9414979,48.6259756 54.410257,49.1680029 52.3597249,50.5910097 C50.7650217,52.2033259 49.5629497,54.1640514 48.8473712,56.3200852 C47.026944,60.6939726 44.7781809,66 36.9967468,66 C35.9936702,65.99471 34.9920378,65.9228504 33.9983961,65.7848908 C29.2597426,64.7937654 25.3319292,61.4815166 23.5398631,56.9654129 C21.4683654,51.2613224 22.7654883,44.871941 26.8951603,40.4378547 C27.2878015,39.9359332 27.6804427,39.3981601 28.1087785,38.788684 C32.0351902,33.4468051 38.6030061,24.4839211 50.203768,26.885974 C57.1525856,27.9710857 63.2637605,32.0972527 66.8874482,38.1505267 L66.8874482,38.1505267 Z M32.9418344,56.9367316 C32.9437555,56.6984349 32.8503557,56.4693375 32.6825863,56.3008308 C32.5148169,56.132324 32.2867221,56.0385136 32.0494681,56.0404432 L31.7139383,56.0404432 C31.221098,56.0404432 30.821572,56.4417252 30.821572,56.9367316 C30.821572,57.4317381 31.221098,57.8330201 31.7139383,57.8330201 L32.0351902,57.8330201 C32.2748991,57.8388551 32.5067109,57.7467721 32.6776008,57.5778341 C32.8484906,57.4088962 32.9438385,57.1775564 32.9418344,56.9367316 L32.9418344,56.9367316 Z M42.722169,47.1492623 C42.722169,46.6542558 42.322643,46.2529739 41.8298027,46.2529739 C41.3369624,46.2529739 40.9374364,46.6542558 40.9374364,47.1492623 L40.9374364,47.5436292 C40.9374364,48.0386356 41.3369624,48.4399176 41.8298027,48.4399176 C42.322643,48.4399176 42.722169,48.0386356 42.722169,47.5436292 L42.722169,47.1492623 Z M42.508001,34.49367 C42.1659365,34.1322306 41.6028143,34.1008085 41.2229936,34.4219669 L40.973131,34.6729277 C40.7851113,34.8216336 40.6696297,35.0441999 40.6559768,35.2841755 C40.642324,35.524151 40.7318114,35.7584813 40.9017417,35.9277314 C41.053577,36.1266483 41.2954966,36.2346407 41.5442454,36.2145437 C41.7649799,36.2142082 41.9790116,36.1383356 42.1510545,35.9994345 L42.4009171,35.7484738 C42.5854275,35.5993953 42.7012326,35.3810301 42.7214556,35.1440579 C42.7416786,34.9070857 42.6645611,34.6721116 42.508001,34.49367 L42.508001,34.49367 Z M47.2910844,42.9546325 C47.2834324,42.4628448 46.8883538,42.0660297 46.3987181,42.0583441 C46.1614641,42.0564145 45.9333693,42.1502248 45.7655999,42.3187316 C45.5978305,42.4872384 45.5044306,42.7163358 45.5063518,42.9546325 L45.5063518,43.3131479 C45.5140037,43.8049357 45.9090824,44.2017507 46.3987181,44.2094363 C46.8830255,44.1893329 47.271069,43.799584 47.2910844,43.3131479 L47.2910844,42.9546325 Z M69.9928829,20.0813524 C69.7330179,19.7902182 69.3212171,19.6903811 68.957738,19.8303917 C68.3152343,20.117204 62.4970061,22.7343661 61.4975558,25.5666375 C61.3941953,25.8137511 61.4210007,26.0964451 61.5689451,26.3195197 C61.6947772,26.5488461 61.9184762,26.7074453 62.1757542,26.7497382 L66.0664712,27.3950658 L66.6732803,27.3950658 C67.9939824,27.3950658 70.8852492,27.1799566 71.7419209,25.5666375 C72.7627879,23.5589514 70.4569134,20.654977 69.9928829,20.0813524 L69.9928829,20.0813524 Z M17.8358577,34.0921328 C19.749452,32.2905222 21.4155777,30.2409093 22.7902754,27.9973716 C18.8914613,26.738571 15.1158108,25.1232666 11.5107654,23.1717549 C9.77841364,22.2334171 7.96776132,21.4488714 6.09945621,20.8270644 C5.5568975,20.7123395 5.10357542,20.6155403 4.67167014,20.468549 C4.65393309,20.4657308 4.6358652,20.4657308 4.61812816,20.468549 L4.61812816,20.468549 C2.62993606,20.0741821 1.27353929,20.3323132 0.598910368,21.2465274 C-0.700374957,22.9960823 0.291936363,27.1333496 1.88034837,30.1377083 C3.72188432,33.4487076 6.92012261,35.7786049 10.6255381,36.5085263 C13.2773226,36.930131 15.9674309,36.0285954 17.8358577,34.0921328 L17.8358577,34.0921328 Z M12.3460203,21.587117 C12.1318524,21.4795623 11.9533791,21.3720077 11.7392112,21.2644531 C15.8362818,21.1787735 19.8476486,20.0698751 23.4113623,18.0378149 C27.134436,15.8778411 29.7647096,12.2267377 30.6430988,7.99938474 C31.2130791,5.7051466 32.2323627,3.54793067 33.6414495,1.65366283 C35.1320448,-0.105042089 37.6739653,-0.515360551 39.638151,0.685671352 C42.8863644,2.37069355 45.8490205,7.60501784 43.4217841,16.6037534 C42.7081609,20.5453463 40.4101409,24.0179002 37.0681361,26.2047948 C33.0467438,28.0548019 28.4523086,28.1969893 24.3251454,26.5991617 C20.1680141,25.3554421 16.1528332,23.6754975 12.3460203,21.587117 L12.3460203,21.587117 Z M35.2976814,15.8508712 L35.8687958,16.2810896 C36.0151789,16.4121714 36.2088042,16.4769968 36.4042156,16.4603473 C36.6856307,16.46265 36.9510937,16.3293351 37.1181086,16.1018319 C37.4057685,15.7037904 37.3267528,15.1482493 36.9396354,14.8470282 L36.3685209,14.4168097 C35.9727115,14.1259068 35.4180887,14.2054868 35.1192081,14.5960674 C34.9699076,14.7822633 34.9029846,15.0217205 34.9340014,15.2587551 C34.9650182,15.4957898 35.091272,15.7097464 35.2834035,15.8508712 L35.2976814,15.8508712 Z M31.6568269,22.0173354 C31.7727108,22.3758192 32.1025964,22.6207193 32.4778039,22.6268115 C32.5879926,22.6201479 32.6964279,22.5959453 32.7990558,22.5551084 L33.2630862,22.4117023 C33.7303961,22.2490387 33.9805012,21.7390938 33.824102,21.2678341 C33.6677029,20.7965745 33.1629908,20.5393411 32.6919718,20.6908286 L32.1922467,20.8700862 C31.9642213,20.9433023 31.776885,21.1086434 31.6752782,21.3263573 C31.5736714,21.5440712 31.5669851,21.7944642 31.6568269,22.0173354 L31.6568269,22.0173354 Z M13.0563438,41.0186496 C12.5635035,41.0186496 12.1639776,41.4199316 12.1639776,41.914938 L12.1639776,42.147973 C12.1639776,42.6429794 12.5635035,43.0442614 13.0563438,43.0442614 C13.5491841,43.0442614 13.9487101,42.6429794 13.9487101,42.147973 L13.9487101,41.914938 C13.9428459,41.4241369 13.5450324,41.0293697 13.0563438,41.029405 L13.0563438,41.0186496 Z M17.4360776,42.6965015 L17.1862151,42.6965015 C16.6933748,42.6965015 16.2938488,43.0977835 16.2938488,43.5927899 C16.2938488,44.0877963 16.6933748,44.4890783 17.1862151,44.4890783 L17.4360776,44.4890783 C17.9289179,44.4890783 18.3284439,44.0877963 18.3284439,43.5927899 C18.3284439,43.0977835 17.9289179,42.6965015 17.4360776,42.6965015 Z M14.8589238,48.637101 C14.3660835,48.637101 13.9665575,49.038383 13.9665575,49.5333894 L13.9665575,50.3257084 C13.9665575,50.8207148 14.3660835,51.2219968 14.8589238,51.2219968 C15.3517641,51.2219968 15.7512901,50.8207148 15.7512901,50.3257084 L15.7512901,49.5082933 C15.7436418,49.0244247 15.3549529,48.6340275 14.8732016,48.6263456 L14.8589238,48.637101 Z M55.2724085,56.0010066 L54.9761429,56.4276398 C54.6943466,56.833569 54.7934142,57.3920696 55.1974498,57.6752733 C55.3475589,57.7794056 55.5254534,57.8356324 55.7078833,57.8366052 C56.0006694,57.8370917 56.2752203,57.6938584 56.4431931,57.4529938 L56.7394587,57.0227753 C56.8745986,56.8284051 56.9272119,56.5880264 56.8856959,56.3546497 C56.8441799,56.1212729 56.7119447,55.9140671 56.5181519,55.778727 C56.1124244,55.4974044 55.5568381,55.5965383 55.2724085,56.0010066 Z" id="Shape"></path>
            </g>
        </g>
    </g>
</svg>