<svg width="39" height="60" viewBox="0 0 39 57" version="1.1" xmlns="http://www.w3.org/2000/svg" xmlns:xlink="http://www.w3.org/1999/xlink">
    <title>noun_Egg_1775207</title>
    <g id="Page-1" stroke="none" stroke-width="1" fill="none" fill-rule="evenodd">
        <g id="Home---New-Font-1" transform="translate(-586.000000, -3238.000000)" fill="#000000" fill-rule="nonzero">
            <g id="noun_Egg_1775207" transform="translate(586.000000, 3238.000000)">
                <path d="M19.5872418,57 C28.8890741,57 35.0902956,51.9916318 37.7138893,43.167364 L33.420736,43.167364 L29.1275826,36.4895397 L21.972327,43.8828452 L19.8257503,39.1129707 L18.3946992,40.5439331 L16.7251395,38.874477 L20.5412759,35.0585774 L22.6878526,39.5899582 L29.3660911,32.4351464 L34.8517871,40.7824268 L38.4294149,40.7824268 C38.906432,37.9205021 39.1449405,35.0585774 38.906432,32.1966527 C38.6679234,21.4644351 32.2281934,0 19.5872418,0 C6.9462902,0 0.26805163,21.4644351 0.0295431099,32.1966527 C-0.447473931,45.0753138 4.79971352,57 19.5872418,57 Z" id="Path"></path>
            </g>
        </g>
    </g>
</svg>