<svg width="78" height="60" viewBox="0 0 78 48" version="1.1" xmlns="http://www.w3.org/2000/svg" xmlns:xlink="http://www.w3.org/1999/xlink">
    <title>noun_leaves_1840727</title>
    <g id="Page-1" stroke="none" stroke-width="1" fill="none" fill-rule="evenodd">
        <g id="Home---New-Font-1" transform="translate(-1022.000000, -3242.000000)" fill="#000000">
            <g id="noun_leaves_1840727" transform="translate(1022.000000, 3242.000000)">
                <path d="M0,8 C46.3058824,13.2173913 46.3058824,23.0724638 48,47.4202899 C40.6588235,33.7971014 28.5176471,21.6231884 22.0235294,20.7536232 C33.3176471,26.5507246 42.0705882,39.0144928 47.4352941,48 C18.3529412,32.057971 15.2470588,37.8550725 0,8 Z" id="Path"></path>
                <path d="M78,0 C51.3006536,2.77777778 40.0588235,7.22222222 35,14.7222222 C38.0915033,16.3888889 40.9019608,18.3333333 43.1503268,20.8333333 C47.9281046,15.8333333 52.7058824,12.5 56.0784314,11.9444444 C51.5816993,14.4444444 47.3660131,17.7777778 43.7124183,21.3888889 C44.2745098,22.2222222 44.8366013,23.0555556 45.3986928,23.8888889 C46.5228758,25.8333333 47.3660131,27.7777778 47.9281046,30 C61.9803922,23.6111111 66.4771242,21.6666667 78,0 Z" id="Path"></path>
            </g>
        </g>
    </g>
</svg>