<svg viewBox="0 0 16 16" version="1.1" xmlns="http://www.w3.org/2000/svg" xmlns:xlink="http://www.w3.org/1999/xlink" width="16"  height="16" >
  <g id="Symbols" stroke="none" stroke-width="1" fill="none" fill-rule="evenodd">
      <g transform="translate(-218.000000, -58.000000)" fill="#000000" stroke="#000000" stroke-width="2px">
          <path d="M226.419522,59.0551478 C226.887962,59.1591448 227.037461,59.3150055 226.909916,59.4338668 C226.781752,59.5527282 226.69703,59.7160211 226.654206,59.9016107 C226.633438,59.9910464 226.652381,60.9480201 226.682355,61.9611405 L226.696868,62.4297667 C226.727042,63.3631744 226.762856,64.2380595 226.781752,64.4162408 C226.791149,64.505539 226.805903,64.731394 226.823631,65.0338155 C227.10972,65.0142432 227.343078,64.9988271 227.494627,64.9913204 C227.829587,64.9746664 228.379037,64.9484029 228.951696,64.9225226 L229.443768,64.9006664 C230.177018,64.868722 230.858289,64.8421307 231.08104,64.8421307 C231.526595,64.8421307 232.410272,64.8424399 232.484379,64.7993063 C232.558647,64.7566365 232.729534,64.4157418 232.863206,64.7354562 C232.99677,65.0551705 233.048903,65.9504634 232.944852,66.4195221 C232.840855,66.8879623 232.684994,67.0374613 232.566133,66.9099156 C232.447272,66.7817516 232.283979,66.6970304 232.098389,66.654206 C232.008954,66.633438 231.05198,66.6523809 230.03886,66.6823547 L229.570233,66.6968675 C228.636826,66.727042 227.76194,66.762856 227.583759,66.7817516 C227.490189,66.7915984 227.246682,66.8073272 226.922259,66.8261954 C226.961744,67.5720642 226.998744,68.2480485 227.01659,68.4482627 C227.058951,68.9233849 227.165625,69.6213653 227.272454,70.6461471 C227.378665,71.6707673 227.4,72.3464512 227.4,72.5396345 C227.4,72.7326563 227.250965,72.8589498 226.888426,72.9257319 C226.525887,72.9926217 226.441166,73 226.142478,73 C225.822609,73 225.332215,72.8292748 225.332215,72.7252779 C225.332215,72.6211733 225.396529,72.4207193 225.417709,72.1238622 C225.439199,71.8268435 225.417709,70.0743525 225.375039,69.4730445 C225.352523,69.1567718 225.259401,68.0379093 225.169942,66.9226589 C224.425526,66.9618755 223.751594,66.9987755 223.551737,67.0165902 C223.076615,67.0589508 222.378635,67.1656253 221.353853,67.2724544 C220.329233,67.3786651 219.653549,67.4 219.460365,67.4 C219.267344,67.4 219.14105,67.2509649 219.074268,66.8884261 C219.007378,66.5258874 219,66.4411662 219,66.1424775 C219,65.8226086 219.170725,65.332215 219.274722,65.332215 C219.378827,65.332215 219.579281,65.3965289 219.876138,65.4177092 C220.173156,65.4391987 221.925647,65.4177092 222.526955,65.3750394 C222.839161,65.3528125 223.933449,65.261784 225.034318,65.173395 C225.014138,64.8886791 224.998801,64.6564019 224.99132,64.5053734 C224.974666,64.1704128 224.948403,63.6209626 224.922523,63.0483043 L224.900666,62.556232 C224.868722,61.8229823 224.842131,61.1417108 224.842131,60.9189603 C224.842131,60.4734053 224.84244,59.5897276 224.799306,59.515621 C224.756636,59.4413529 224.415742,59.2704662 224.735456,59.1367943 C225.05517,59.0032301 225.950463,58.951097 226.419522,59.0551478 Z" id="Combined-Shape" stroke="#000000" stroke-width="2px"></path>
      </g>
  </g>
</svg>